<svg xmlns="http://www.w3.org/2000/svg" width="1000" height="1000"><rect width="1000" height="1000" x="0" y="0" fill="#FFFFFF" id="background"/><g transform="translate(20,20)" id="viz"><g id="nodes"><g transform="translate(481,481)"><path id="p_1441" d="M-8.817456953860942e-14,480A480,480,0,1,1,8.817456953860942e-14,-480A480,480,0,1,1,-8.817456953860942e-14,480Z" fill="none" stroke="#ccc"/></g><g transform="translate(425.2166155922659,481.2479038016628)" id="666880"><path id="p_972.8050656418299" d="M-1.2370257662298983e-14,67.34054624790124A67.34054624790124,67.34054624790124,0,1,1,1.2370257662298983e-14,-67.34054624790124A67.34054624790124,67.34054624790124,0,1,1,-1.2370257662298983e-14,67.34054624790124Z" fill="#1f77b4" stroke="none"/></g><g transform="translate(549.4884246800956,481.2479038016628)" id="1681405"><path id="p_1084.7196542509753" d="M-1.0100273086462127e-14,54.98332576921678A54.98332576921678,54.98332576921678,0,1,1,1.0100273086462127e-14,-54.98332576921678A54.98332576921678,54.98332576921678,0,1,1,-1.0100273086462127e-14,54.98332576921678Z" fill="#1f77b4" stroke="none"/></g><g transform="translate(499.09535791986923,581.1749470184697)" id="1659440"><path id="p_1134.2536307075559" d="M-1.0100273086462127e-14,54.98332576921678A54.98332576921678,54.98332576921678,0,1,1,1.0100273086462127e-14,-54.98332576921678A54.98332576921678,54.98332576921678,0,1,1,-1.0100273086462127e-14,54.98332576921678Z" fill="#1f77b4" stroke="none"/></g><g transform="translate(497.49399968636254,400.77305031054)" id="15462452"><path id="p_936.1461325005048" d="M-7.141971591273348e-15,38.87908250360222A38.87908250360222,38.87908250360222,0,1,1,7.141971591273348e-15,-38.87908250360222A38.87908250360222,38.87908250360222,0,1,1,-7.141971591273348e-15,38.87908250360222Z" fill="#1f77b4" stroke="none"/></g><g transform="translate(422.7427952486141,373.10863013658496)" id="12455682"><path id="p_833.7305078888013" d="M-7.141971591273348e-15,38.87908250360222A38.87908250360222,38.87908250360222,0,1,1,7.141971591273348e-15,-38.87908250360222A38.87908250360222,38.87908250360222,0,1,1,-7.141971591273348e-15,38.87908250360222Z" fill="#1f77b4" stroke="none"/></g><g transform="translate(403.475144643186,587.207946916384)" id="8799728"><path id="p_1028.5621740631723" d="M-7.141971591273348e-15,38.87908250360222A38.87908250360222,38.87908250360222,0,1,1,7.141971591273348e-15,-38.87908250360222A38.87908250360222,38.87908250360222,0,1,1,-7.141971591273348e-15,38.87908250360222Z" fill="#1f77b4" stroke="none"/></g><g transform="translate(576.3679178920827,389.2853292426969)" id="5503985"><path id="p_1003.5323296383818" d="M-7.141971591273348e-15,38.87908250360222A38.87908250360222,38.87908250360222,0,1,1,7.141971591273348e-15,-38.87908250360222A38.87908250360222,38.87908250360222,0,1,1,-7.141971591273348e-15,38.87908250360222Z" fill="#1f77b4" stroke="none"/></g><g transform="translate(593.7330105371308,566.230483764771)" id="5384342"><path id="p_1197.842576805504" d="M-7.141971591273348e-15,38.87908250360222A38.87908250360222,38.87908250360222,0,1,1,7.141971591273348e-15,-38.87908250360222A38.87908250360222,38.87908250360222,0,1,1,-7.141971591273348e-15,38.87908250360222Z" fill="#1f77b4" stroke="none"/></g><g transform="translate(349.33484185133307,404.16237526463374)" id="4320519"><path id="p_791.3762996195691" d="M-7.141971591273348e-15,38.87908250360222A38.87908250360222,38.87908250360222,0,1,1,7.141971591273348e-15,-38.87908250360222A38.87908250360222,38.87908250360222,0,1,1,-7.141971591273348e-15,38.87908250360222Z" fill="#1f77b4" stroke="none"/></g><g transform="translate(336.79108538266394,543.5467633662971)" id="3755251"><path id="p_918.2169312525633" d="M-7.141971591273348e-15,38.87908250360222A38.87908250360222,38.87908250360222,0,1,1,7.141971591273348e-15,-38.87908250360222A38.87908250360222,38.87908250360222,0,1,1,-7.141971591273348e-15,38.87908250360222Z" fill="#1f77b4" stroke="none"/></g><g transform="translate(484.0764881191,322.20439821698824)" id="3332035"><path id="p_844.1599688396906" d="M-7.141971591273348e-15,38.87908250360222A38.87908250360222,38.87908250360222,0,1,1,7.141971591273348e-15,-38.87908250360222A38.87908250360222,38.87908250360222,0,1,1,-7.141971591273348e-15,38.87908250360222Z" fill="#1f77b4" stroke="none"/></g><g transform="translate(636.6389893973264,441.4433645590791)" id="2952301"><path id="p_1115.9614364600077" d="M-7.141971591273348e-15,38.87908250360222A38.87908250360222,38.87908250360222,0,1,1,7.141971591273348e-15,-38.87908250360222A38.87908250360222,38.87908250360222,0,1,1,-7.141971591273348e-15,38.87908250360222Z" fill="#1f77b4" stroke="none"/></g><g transform="translate(562.9504063248202,310.71667714914514)" id="2901396"><path id="p_911.5461659775675" d="M-7.141971591273348e-15,38.87908250360222A38.87908250360222,38.87908250360222,0,1,1,7.141971591273348e-15,-38.87908250360222A38.87908250360222,38.87908250360222,0,1,1,-7.141971591273348e-15,38.87908250360222Z" fill="#1f77b4" stroke="none"/></g><g transform="translate(657.4759915227321,518.3776355368497)" id="2748109"><path id="p_1213.732709563184" d="M-7.141971591273348e-15,38.87908250360222A38.87908250360222,38.87908250360222,0,1,1,7.141971591273348e-15,-38.87908250360222A38.87908250360222,38.87908250360222,0,1,1,-7.141971591273348e-15,38.87908250360222Z" fill="#1f77b4" stroke="none"/></g><g transform="translate(441.1278666420494,657.4598880606079)" id="2426356"><path id="p_1136.4668372062595" d="M-7.141971591273348e-15,38.87908250360222A38.87908250360222,38.87908250360222,0,1,1,7.141971591273348e-15,-38.87908250360222A38.87908250360222,38.87908250360222,0,1,1,-7.141971591273348e-15,38.87908250360222Z" fill="#1f77b4" stroke="none"/></g><g transform="translate(305.049528717552,470.43358884261306)" id="2300500"><path id="p_813.3622000637673" d="M-7.141971591273348e-15,38.87908250360222A38.87908250360222,38.87908250360222,0,1,1,7.141971591273348e-15,-38.87908250360222A38.87908250360222,38.87908250360222,0,1,1,-7.141971591273348e-15,38.87908250360222Z" fill="#1f77b4" stroke="none"/></g><g transform="translate(572.2903866409684,642.9981630894902)" id="2232374"><path id="p_1253.1676322340609" d="M-7.141971591273348e-15,38.87908250360222A38.87908250360222,38.87908250360222,0,1,1,7.141971591273348e-15,-38.87908250360222A38.87908250360222,38.87908250360222,0,1,1,-7.141971591273348e-15,38.87908250360222Z" fill="#1f77b4" stroke="none"/></g><g transform="translate(359.1454863864361,325.06235021873977)" id="2145906"><path id="p_722.0869191087781" d="M-7.141971591273348e-15,38.87908250360222A38.87908250360222,38.87908250360222,0,1,1,7.141971591273348e-15,-38.87908250360222A38.87908250360222,38.87908250360222,0,1,1,-7.141971591273348e-15,38.87908250360222Z" fill="#1f77b4" stroke="none"/></g><g transform="translate(420.47917925692207,274.1581182991431)" id="1995471"><path id="p_732.5163800596674" d="M-7.141971591273348e-15,38.87908250360222A38.87908250360222,38.87908250360222,0,1,1,7.141971591273348e-15,-38.87908250360222A38.87908250360222,38.87908250360222,0,1,1,-7.141971591273348e-15,38.87908250360222Z" fill="#1f77b4" stroke="none"/></g><g transform="translate(332.3214208992545,623.1274444884195)" id="1985753"><path id="p_993.3279478912763" d="M-7.141971591273348e-15,38.87908250360222A38.87908250360222,38.87908250360222,0,1,1,7.141971591273348e-15,-38.87908250360222A38.87908250360222,38.87908250360222,0,1,1,-7.141971591273348e-15,38.87908250360222Z" fill="#1f77b4" stroke="none"/></g><g transform="translate(651.6736372401775,363.16806786403845)" id="1984837"><path id="p_1052.7207876078182" d="M-7.141971591273348e-15,38.87908250360222A38.87908250360222,38.87908250360222,0,1,1,7.141971591273348e-15,-38.87908250360222A38.87908250360222,38.87908250360222,0,1,1,-7.141971591273348e-15,38.87908250360222Z" fill="#1f77b4" stroke="none"/></g><g transform="translate(511.610163149119,694.6796219063075)" id="1973403"><path id="p_1244.1688675590285" d="M-7.141971591273348e-15,38.87908250360222A38.87908250360222,38.87908250360222,0,1,1,7.141971591273348e-15,-38.87908250360222A38.87908250360222,38.87908250360222,0,1,1,-7.141971591273348e-15,38.87908250360222Z" fill="#1f77b4" stroke="none"/></g><g transform="translate(369.9741428981179,693.3793856326436)" id="1916822"><path id="p_1101.2326110343636" d="M-7.141971591273348e-15,38.87908250360222A38.87908250360222,38.87908250360222,0,1,1,7.141971591273348e-15,-38.87908250360222A38.87908250360222,38.87908250360222,0,1,1,-7.141971591273348e-15,38.87908250360222Z" fill="#1f77b4" stroke="none"/></g><g transform="translate(667.0462832387524,597.5071004972895)" id="1892122"><path id="p_1302.4324662396439" d="M-7.141971591273348e-15,38.87908250360222A38.87908250360222,38.87908250360222,0,1,1,7.141971591273348e-15,-38.87908250360222A38.87908250360222,38.87908250360222,0,1,1,-7.141971591273348e-15,38.87908250360222Z" fill="#1f77b4" stroke="none"/></g><g transform="translate(638.256125672915,284.5994157704867)" id="1860281"><path id="p_960.734623947004" d="M-7.141971591273348e-15,38.87908250360222A38.87908250360222,38.87908250360222,0,1,1,7.141971591273348e-15,-38.87908250360222A38.87908250360222,38.87908250360222,0,1,1,-7.141971591273348e-15,38.87908250360222Z" fill="#1f77b4" stroke="none"/></g><g transform="translate(645.60365934259,674.2747798220087)" id="1814468"><path id="p_1357.7575216682008" d="M-7.141971591273348e-15,38.87908250360222A38.87908250360222,38.87908250360222,0,1,1,7.141971591273348e-15,-38.87908250360222A38.87908250360222,38.87908250360222,0,1,1,-7.141971591273348e-15,38.87908250360222Z" fill="#1f77b4" stroke="none"/></g><g transform="translate(269.79963078628816,398.94577586522036)" id="1775904"><path id="p_706.6244891551108" d="M-7.141971591273348e-15,38.87908250360222A38.87908250360222,38.87908250360222,0,1,1,7.141971591273348e-15,-38.87908250360222A38.87908250360222,38.87908250360222,0,1,1,-7.141971591273348e-15,38.87908250360222Z" fill="#1f77b4" stroke="none"/></g><g transform="translate(257.6024405612724,534.4791705321053)" id="1765981"><path id="p_829.9606935969799" d="M-7.141971591273348e-15,38.87908250360222A38.87908250360222,38.87908250360222,0,1,1,7.141971591273348e-15,-38.87908250360222A38.87908250360222,38.87908250360222,0,1,1,-7.141971591273348e-15,38.87908250360222Z" fill="#1f77b4" stroke="none"/></g><g transform="translate(713.6845235484145,461.8651268686528)" id="1732396"><path id="p_1213.4287329206695" d="M-7.141971591273348e-15,38.87908250360222A38.87908250360222,38.87908250360222,0,1,1,7.141971591273348e-15,-38.87908250360222A38.87908250360222,38.87908250360222,0,1,1,-7.141971591273348e-15,38.87908250360222Z" fill="#1f77b4" stroke="none"/></g><g transform="translate(513.5647889456183,248.15372082089715)" id="1716961"><path id="p_799.5975922701176" d="M-7.141971591273348e-15,38.87908250360222A38.87908250360222,38.87908250360222,0,1,1,7.141971591273348e-15,-38.87908250360222A38.87908250360222,38.87908250360222,0,1,1,-7.141971591273348e-15,38.87908250360222Z" fill="#1f77b4" stroke="none"/></g><g transform="translate(279.6102753213912,319.84575081932644)" id="1680723"><path id="p_637.3351086443199" d="M-7.141971591273348e-15,38.87908250360222A38.87908250360222,38.87908250360222,0,1,1,7.141971591273348e-15,-38.87908250360222A38.87908250360222,38.87908250360222,0,1,1,-7.141971591273348e-15,38.87908250360222Z" fill="#1f77b4" stroke="none"/></g><g transform="translate(253.13277607786293,614.0598516542277)" id="1671004"><path id="p_905.0717102356929" d="M-7.141971591273348e-15,38.87908250360222A38.87908250360222,38.87908250360222,0,1,1,7.141971591273348e-15,-38.87908250360222A38.87908250360222,38.87908250360222,0,1,1,-7.141971591273348e-15,38.87908250360222Z" fill="#1f77b4" stroke="none"/></g><g transform="translate(728.7191713912655,383.5898301736121)" id="1660122"><path id="p_1150.1880840684798" d="M-7.141971591273348e-15,38.87908250360222A38.87908250360222,38.87908250360222,0,1,1,7.141971591273348e-15,-38.87908250360222A38.87908250360222,38.87908250360222,0,1,1,-7.141971591273348e-15,38.87908250360222Z" fill="#1f77b4" stroke="none"/></g><g transform="translate(449.96748008344025,200.107440903052)" id="1625631"><path id="p_687.9540034900946" d="M-7.141971591273348e-15,38.87908250360222A38.87908250360222,38.87908250360222,0,1,1,7.141971591273348e-15,-38.87908250360222A38.87908250360222,38.87908250360222,0,1,1,-7.141971591273348e-15,38.87908250360222Z" fill="#1f77b4" stroke="none"/></g><g transform="translate(444.1357798631128,737.1092142756472)" id="1567205"><path id="p_1219.124076642362" d="M-7.141971591273348e-15,38.87908250360222A38.87908250360222,38.87908250360222,0,1,1,7.141971591273348e-15,-38.87908250360222A38.87908250360222,38.87908250360222,0,1,1,-7.141971591273348e-15,38.87908250360222Z" fill="#1f77b4" stroke="none"/></g><g transform="translate(730.7892642243537,549.6542522693683)" id="1512491"><path id="p_1318.3225989973241" d="M-7.141971591273348e-15,38.87908250360222A38.87908250360222,38.87908250360222,0,1,1,7.141971591273348e-15,-38.87908250360222A38.87908250360222,38.87908250360222,0,1,1,-7.141971591273348e-15,38.87908250360222Z" fill="#1f77b4" stroke="none"/></g><g transform="translate(584.9234358507406,725.9562386388261)" id="1468833"><path id="p_1348.7587569931688" d="M-7.141971591273348e-15,38.87908250360222A38.87908250360222,38.87908250360222,0,1,1,7.141971591273348e-15,-38.87908250360222A38.87908250360222,38.87908250360222,0,1,1,-7.141971591273348e-15,38.87908250360222Z" fill="#1f77b4" stroke="none"/></g><g transform="translate(222.3525426300086,462.9913575547126)" id="1421457"><path id="p_723.2229826883234" d="M-7.141971591273348e-15,38.87908250360222A38.87908250360222,38.87908250360222,0,1,1,7.141971591273348e-15,-38.87908250360222A38.87908250360222,38.87908250360222,0,1,1,-7.141971591273348e-15,38.87908250360222Z" fill="#1f77b4" stroke="none"/></g><g transform="translate(345.72797481917365,246.49369812518805)" id="1421125"><path id="p_630.1007554479639" d="M-7.141971591273348e-15,38.87908250360222A38.87908250360222,38.87908250360222,0,1,1,7.141971591273348e-15,-38.87908250360222A38.87908250360222,38.87908250360222,0,1,1,-7.141971591273348e-15,38.87908250360222Z" fill="#1f77b4" stroke="none"/></g><g transform="translate(786.9977962500361,493.14174360117136)" id="1389680"><path id="p_1318.0186223548096" d="M-7.141971591273348e-15,38.87908250360222A38.87908250360222,38.87908250360222,0,1,1,7.141971591273348e-15,-38.87908250360222A38.87908250360222,38.87908250360222,0,1,1,-7.141971591273348e-15,38.87908250360222Z" fill="#1f77b4" stroke="none"/></g><g transform="translate(372.9820561191814,773.0287118476829)" id="1383435"><path id="p_1183.8898504704664" d="M-7.141971591273348e-15,38.87908250360222A38.87908250360222,38.87908250360222,0,1,1,7.141971591273348e-15,-38.87908250360222A38.87908250360222,38.87908250360222,0,1,1,-7.141971591273348e-15,38.87908250360222Z" fill="#1f77b4" stroke="none"/></g><g transform="translate(588.8705082937131,222.0364594422387)" id="1378682"><path id="p_848.7860502395541" d="M-7.141971591273348e-15,38.87908250360222A38.87908250360222,38.87908250360222,0,1,1,7.141971591273348e-15,-38.87908250360222A38.87908250360222,38.87908250360222,0,1,1,-7.141971591273348e-15,38.87908250360222Z" fill="#1f77b4" stroke="none"/></g><g transform="translate(290.30781620261905,690.8616288331805)" id="1368488"><path id="p_1019.0485275394018" d="M-7.141971591273348e-15,38.87908250360222A38.87908250360222,38.87908250360222,0,1,1,7.141971591273348e-15,-38.87908250360222A38.87908250360222,38.87908250360222,0,1,1,-7.141971591273348e-15,38.87908250360222Z" fill="#1f77b4" stroke="none"/></g><g transform="translate(266.1927637541288,241.2770987257747)" id="1357326"><path id="p_545.3489449835057" d="M-7.141971591273348e-15,38.87908250360222A38.87908250360222,38.87908250360222,0,1,1,7.141971591273348e-15,-38.87908250360222A38.87908250360222,38.87908250360222,0,1,1,-7.141971591273348e-15,38.87908250360222Z" fill="#1f77b4" stroke="none"/></g><g transform="translate(715.301659824003,305.0211780800604)" id="1354196"><path id="p_1058.2019204076655" d="M-7.141971591273348e-15,38.87908250360222A38.87908250360222,38.87908250360222,0,1,1,7.141971591273348e-15,-38.87908250360222A38.87908250360222,38.87908250360222,0,1,1,-7.141971591273348e-15,38.87908250360222Z" fill="#1f77b4" stroke="none"/></g><g transform="translate(211.11917138122755,681.7940359989886)" id="1279212"><path id="p_930.7922898838184" d="M-7.141971591273348e-15,38.87908250360222A38.87908250360222,38.87908250360222,0,1,1,7.141971591273348e-15,-38.87908250360222A38.87908250360222,38.87908250360222,0,1,1,-7.141971591273348e-15,38.87908250360222Z" fill="#1f77b4" stroke="none"/></g><g transform="translate(722.8077317754555,654.4607971775209)" id="1278676"><path id="p_1415.1476114565785" d="M-7.141971591273348e-15,38.87908250360222A38.87908250360222,38.87908250360222,0,1,1,7.141971591273348e-15,-38.87908250360222A38.87908250360222,38.87908250360222,0,1,1,-7.141971591273348e-15,38.87908250360222Z" fill="#1f77b4" stroke="none"/></g><g transform="translate(514.6180763701824,774.3289481213468)" id="1259173"><path id="p_1326.8261069951313" d="M-7.141971591273348e-15,38.87908250360222A38.87908250360222,38.87908250360222,0,1,1,7.141971591273348e-15,-38.87908250360222A38.87908250360222,38.87908250360222,0,1,1,-7.141971591273348e-15,38.87908250360222Z" fill="#1f77b4" stroke="none"/></g><g transform="translate(786.5507127610567,606.6079489495997)" id="1252236"><path id="p_1431.0377442142585" d="M-7.141971591273348e-15,38.87908250360222A38.87908250360222,38.87908250360222,0,1,1,7.141971591273348e-15,-38.87908250360222A38.87908250360222,38.87908250360222,0,1,1,-7.141971591273348e-15,38.87908250360222Z" fill="#1f77b4" stroke="none"/></g><g transform="translate(587.931349071804,805.6055648538654)" id="1250610"><path id="p_1431.4159964292717" d="M-7.141971591273348e-15,38.87908250360222A38.87908250360222,38.87908250360222,0,1,1,7.141971591273348e-15,-38.87908250360222A38.87908250360222,38.87908250360222,0,1,1,-7.141971591273348e-15,38.87908250360222Z" fill="#1f77b4" stroke="none"/></g><g transform="translate(206.2023219241102,350.89949594737516)" id="1218255"><path id="p_594.9809003750876" d="M-7.141971591273348e-15,38.87908250360222A38.87908250360222,38.87908250360222,0,1,1,7.141971591273348e-15,-38.87908250360222A38.87908250360222,38.87908250360222,0,1,1,-7.141971591273348e-15,38.87908250360222Z" fill="#1f77b4" stroke="none"/></g><g transform="translate(158.7552337678306,414.94507763686744)" id="1196680"><path id="p_611.5793939083003" d="M-7.141971591273348e-15,38.87908250360222A38.87908250360222,38.87908250360222,0,1,1,7.141971591273348e-15,-38.87908250360222A38.87908250360222,38.87908250360222,0,1,1,-7.141971591273348e-15,38.87908250360222Z" fill="#1f77b4" stroke="none"/></g><g transform="translate(375.21627564569184,172.44302072909693)" id="1191877"><path id="p_585.538378878391" d="M-7.141971591273348e-15,38.87908250360222A38.87908250360222,38.87908250360222,0,1,1,7.141971591273348e-15,-38.87908250360222A38.87908250360222,38.87908250360222,0,1,1,-7.141971591273348e-15,38.87908250360222Z" fill="#1f77b4" stroke="none"/></g><g transform="translate(178.06722949622758,529.262571132692)" id="1184113"><path id="p_745.2088831325218" d="M-7.141971591273348e-15,38.87908250360222A38.87908250360222,38.87908250360222,0,1,1,7.141971591273348e-15,-38.87908250360222A38.87908250360222,38.87908250360222,0,1,1,-7.141971591273348e-15,38.87908250360222Z" fill="#1f77b4" stroke="none"/></g><g transform="translate(173.59756501281805,608.8432522548144)" id="1172070"><path id="p_820.3198997712346" d="M-7.141971591273348e-15,38.87908250360222A38.87908250360222,38.87908250360222,0,1,1,7.141971591273348e-15,-38.87908250360222A38.87908250360222,38.87908250360222,0,1,1,-7.141971591273348e-15,38.87908250360222Z" fill="#1f77b4" stroke="none"/></g><g transform="translate(802.0324440928871,414.8664469061307)" id="1169719"><path id="p_1254.77797350262" d="M-7.141971591273348e-15,38.87908250360222A38.87908250360222,38.87908250360222,0,1,1,7.141971591273348e-15,-38.87908250360222A38.87908250360222,38.87908250360222,0,1,1,-7.141971591273348e-15,38.87908250360222Z" fill="#1f77b4" stroke="none"/></g><g transform="translate(528.5994367884692,169.87842412585638)" id="1137704"><path id="p_736.3569434179279" d="M-7.141971591273348e-15,38.87908250360222A38.87908250360222,38.87908250360222,0,1,1,7.141971591273348e-15,-38.87908250360222A38.87908250360222,38.87908250360222,0,1,1,-7.141971591273348e-15,38.87908250360222Z" fill="#1f77b4" stroke="none"/></g><g transform="translate(660.0210038366685,752.6661242816763)" id="1137100"><path id="p_1450.566210621947" d="M-7.141971591273348e-15,38.87908250360222A38.87908250360222,38.87908250360222,0,1,1,7.141971591273348e-15,-38.87908250360222A38.87908250360222,38.87908250360222,0,1,1,-7.141971591273348e-15,38.87908250360222Z" fill="#1f77b4" stroke="none"/></g><g transform="translate(465.0021279262913,121.8321442080113)" id="1134031"><path id="p_624.7133546379049" d="M-7.141971591273348e-15,38.87908250360222A38.87908250360222,38.87908250360222,0,1,1,7.141971591273348e-15,-38.87908250360222A38.87908250360222,38.87908250360222,0,1,1,-7.141971591273348e-15,38.87908250360222Z" fill="#1f77b4" stroke="none"/></g><g transform="translate(293.3157294236825,770.5109550482198)" id="1118035"><path id="p_1101.7057669755045" d="M-7.141971591273348e-15,38.87908250360222A38.87908250360222,38.87908250360222,0,1,1,7.141971591273348e-15,-38.87908250360222A38.87908250360222,38.87908250360222,0,1,1,-7.141971591273348e-15,38.87908250360222Z" fill="#1f77b4" stroke="none"/></g><g transform="translate(667.7444264994332,210.5487383743956)" id="1115560"><path id="p_916.1722473774311" d="M-7.141971591273348e-15,38.87908250360222A38.87908250360222,38.87908250360222,0,1,1,7.141971591273348e-15,-38.87908250360222A38.87908250360222,38.87908250360222,0,1,1,-7.141971591273348e-15,38.87908250360222Z" fill="#1f77b4" stroke="none"/></g><g transform="translate(744.7899606505212,230.9705006839693)" id="1084831"><path id="p_1013.6395438380927" d="M-7.141971591273348e-15,38.87908250360222A38.87908250360222,38.87908250360222,0,1,1,7.141971591273348e-15,-38.87908250360222A38.87908250360222,38.87908250360222,0,1,1,-7.141971591273348e-15,38.87908250360222Z" fill="#1f77b4" stroke="none"/></g><g transform="translate(737.2250762695338,732.8521416371885)" id="1083865"><path id="p_1507.9563004103245" d="M-7.141971591273348e-15,38.87908250360222A38.87908250360222,38.87908250360222,0,1,1,7.141971591273348e-15,-38.87908250360222A38.87908250360222,38.87908250360222,0,1,1,-7.141971591273348e-15,38.87908250360222Z" fill="#1f77b4" stroke="none"/></g><g transform="translate(447.1436930841763,816.7585404906864)" id="1078362"><path id="p_1301.781316078465" d="M-7.141971591273348e-15,38.87908250360222A38.87908250360222,38.87908250360222,0,1,1,7.141971591273348e-15,-38.87908250360222A38.87908250360222,38.87908250360222,0,1,1,-7.141971591273348e-15,38.87908250360222Z" fill="#1f77b4" stroke="none"/></g><g transform="translate(790.0528642617514,332.6855982540153)" id="1051995"><path id="p_1160.617545019369" d="M-7.141971591273348e-15,38.87908250360222A38.87908250360222,38.87908250360222,0,1,1,7.141971591273348e-15,-38.87908250360222A38.87908250360222,38.87908250360222,0,1,1,-7.141971591273348e-15,38.87908250360222Z" fill="#1f77b4" stroke="none"/></g><g transform="translate(192.7848103568478,272.33084385382347)" id="1048005"><path id="p_502.9947367142735" d="M-7.141971591273348e-15,38.87908250360222A38.87908250360222,38.87908250360222,0,1,1,7.141971591273348e-15,-38.87908250360222A38.87908250360222,38.87908250360222,0,1,1,-7.141971591273348e-15,38.87908250360222Z" fill="#1f77b4" stroke="none"/></g><g transform="translate(842.7592447867391,550.0954402814028)" id="1027782"><path id="p_1430.733767571744" d="M-7.141971591273348e-15,38.87908250360222A38.87908250360222,38.87908250360222,0,1,1,7.141971591273348e-15,-38.87908250360222A38.87908250360222,38.87908250360222,0,1,1,-7.141971591273348e-15,38.87908250360222Z" fill="#1f77b4" stroke="none"/></g><g transform="translate(114.46992063404957,481.21629121484676)" id="1004763"><path id="p_633.5652943524987" d="M-7.141971591273348e-15,38.87908250360222A38.87908250360222,38.87908250360222,0,1,1,7.141971591273348e-15,-38.87908250360222A38.87908250360222,38.87908250360222,0,1,1,-7.141971591273348e-15,38.87908250360222Z" fill="#1f77b4" stroke="none"/></g><g transform="translate(375.9899693402448,852.678038062722)" id="984748"><path id="p_1266.547089906569" d="M-7.141971591273348e-15,38.87908250360222A38.87908250360222,38.87908250360222,0,1,1,7.141971591273348e-15,-38.87908250360222A38.87908250360222,38.87908250360222,0,1,1,-7.141971591273348e-15,38.87908250360222Z" fill="#1f77b4" stroke="none"/></g><g transform="translate(663.0289170577319,832.3154504967156)" id="968502"><path id="p_1533.2234500580496" d="M-7.141971591273348e-15,38.87908250360222A38.87908250360222,38.87908250360222,0,1,1,7.141971591273348e-15,-38.87908250360222A38.87908250360222,38.87908250360222,0,1,1,-7.141971591273348e-15,38.87908250360222Z" fill="#1f77b4" stroke="none"/></g><g transform="translate(295.681064580647,167.22642132968355)" id="948827"><path id="p_500.78656841393274" d="M-7.141971591273348e-15,38.87908250360222A38.87908250360222,38.87908250360222,0,1,1,7.141971591273348e-15,-38.87908250360222A38.87908250360222,38.87908250360222,0,1,1,-7.141971591273348e-15,38.87908250360222Z" fill="#1f77b4" stroke="none"/></g><g transform="translate(603.9051561365642,143.761162747198)" id="921468"><path id="p_785.5454013873644" d="M-7.141971591273348e-15,38.87908250360222A38.87908250360222,38.87908250360222,0,1,1,7.141971591273348e-15,-38.87908250360222A38.87908250360222,38.87908250360222,0,1,1,-7.141971591273348e-15,38.87908250360222Z" fill="#1f77b4" stroke="none"/></g><g transform="translate(863.366136963373,363.9622149865339)" id="913462"><path id="p_1265.207434453509" d="M-7.141971591273348e-15,38.87908250360222A38.87908250360222,38.87908250360222,0,1,1,7.141971591273348e-15,-38.87908250360222A38.87908250360222,38.87908250360222,0,1,1,-7.141971591273348e-15,38.87908250360222Z" fill="#1f77b4" stroke="none"/></g><g transform="translate(131.58396031618264,676.5774365995753)" id="873076"><path id="p_846.0404794193602" d="M-7.141971591273348e-15,38.87908250360222A38.87908250360222,38.87908250360222,0,1,1,7.141971591273348e-15,-38.87908250360222A38.87908250360222,38.87908250360222,0,1,1,-7.141971591273348e-15,38.87908250360222Z" fill="#1f77b4" stroke="none"/></g><g transform="translate(390.25092348854287,94.16772403405628)" id="871187"><path id="p_522.2977300262014" d="M-7.141971591273348e-15,38.87908250360222A38.87908250360222,38.87908250360222,0,1,1,7.141971591273348e-15,-38.87908250360222A38.87908250360222,38.87908250360222,0,1,1,-7.141971591273348e-15,38.87908250360222Z" fill="#1f77b4" stroke="none"/></g><g transform="translate(682.7790743422843,132.27344167935496)" id="853513"><path id="p_852.9315985252415" d="M-7.141971591273348e-15,38.87908250360222A38.87908250360222,38.87908250360222,0,1,1,7.141971591273348e-15,-38.87908250360222A38.87908250360222,38.87908250360222,0,1,1,-7.141971591273348e-15,38.87908250360222Z" fill="#1f77b4" stroke="none"/></g><g transform="translate(214.12708460229095,761.443362214028)" id="845300"><path id="p_1013.4495293199212" d="M-7.141971591273348e-15,38.87908250360222A38.87908250360222,38.87908250360222,0,1,1,7.141971591273348e-15,-38.87908250360222A38.87908250360222,38.87908250360222,0,1,1,-7.141971591273348e-15,38.87908250360222Z" fill="#1f77b4" stroke="none"/></g><g transform="translate(800.9680572551351,684.9992934092674)" id="841600"><path id="p_1523.8464331680048" d="M-7.141971591273348e-15,38.87908250360222A38.87908250360222,38.87908250360222,0,1,1,7.141971591273348e-15,-38.87908250360222A38.87908250360222,38.87908250360222,0,1,1,-7.141971591273348e-15,38.87908250360222Z" fill="#1f77b4" stroke="none"/></g><g transform="translate(517.6259895912458,853.9782743363861)" id="816684"><path id="p_1409.4833464312342" d="M-7.141971591273348e-15,38.87908250360222A38.87908250360222,38.87908250360222,0,1,1,7.141971591273348e-15,-38.87908250360222A38.87908250360222,38.87908250360222,0,1,1,-7.141971591273348e-15,38.87908250360222Z" fill="#1f77b4" stroke="none"/></g><g transform="translate(127.0136771027187,341.8319031131834)" id="804237"><path id="p_506.7246627195043" d="M-7.141971591273348e-15,38.87908250360222A38.87908250360222,38.87908250360222,0,1,1,7.141971591273348e-15,-38.87908250360222A38.87908250360222,38.87908250360222,0,1,1,-7.141971591273348e-15,38.87908250360222Z" fill="#1f77b4" stroke="none"/></g><g transform="translate(862.3035155981308,467.0244822225129)" id="789194"><path id="p_1367.207080324246" d="M-7.141971591273348e-15,38.87908250360222A38.87908250360222,38.87908250360222,0,1,1,7.141971591273348e-15,-38.87908250360222A38.87908250360222,38.87908250360222,0,1,1,-7.141971591273348e-15,38.87908250360222Z" fill="#1f77b4" stroke="none"/></g><g transform="translate(819.5411650882697,258.63492085792416)" id="773068"><path id="p_1116.055168449796" d="M-7.141971591273348e-15,38.87908250360222A38.87908250360222,38.87908250360222,0,1,1,7.141971591273348e-15,-38.87908250360222A38.87908250360222,38.87908250360222,0,1,1,-7.141971591273348e-15,38.87908250360222Z" fill="#1f77b4" stroke="none"/></g><g transform="translate(590.9392622928674,885.2548910689047)" id="767848"><path id="p_1514.0732358653743" d="M-7.141971591273348e-15,38.87908250360222A38.87908250360222,38.87908250360222,0,1,1,7.141971591273348e-15,-38.87908250360222A38.87908250360222,38.87908250360222,0,1,1,-7.141971591273348e-15,38.87908250360222Z" fill="#1f77b4" stroke="none"/></g><g transform="translate(106.91350575229609,565.1820687047275)" id="767131"><path id="p_709.9746569606258" d="M-7.141971591273348e-15,38.87908250360222A38.87908250360222,38.87908250360222,0,1,1,7.141971591273348e-15,-38.87908250360222A38.87908250360222,38.87908250360222,0,1,1,-7.141971591273348e-15,38.87908250360222Z" fill="#1f77b4" stroke="none"/></g><g transform="translate(296.323642644746,850.160281263259)" id="744554"><path id="p_1184.363006411607" d="M-7.141971591273348e-15,38.87908250360222A38.87908250360222,38.87908250360222,0,1,1,7.141971591273348e-15,-38.87908250360222A38.87908250360222,38.87908250360222,0,1,1,-7.141971591273348e-15,38.87908250360222Z" fill="#1f77b4" stroke="none"/></g><g transform="translate(113.59616553545618,263.26325101963164)" id="717273"><path id="p_414.73849905869" d="M-7.141971591273348e-15,38.87908250360222A38.87908250360222,38.87908250360222,0,1,1,7.141971591273348e-15,-38.87908250360222A38.87908250360222,38.87908250360222,0,1,1,-7.141971591273348e-15,38.87908250360222Z" fill="#1f77b4" stroke="none"/></g><g transform="translate(543.6340846313203,91.60312743081579)" id="710052"><path id="p_673.1162945657384" d="M-7.141971591273348e-15,38.87908250360222A38.87908250360222,38.87908250360222,0,1,1,7.141971591273348e-15,-38.87908250360222A38.87908250360222,38.87908250360222,0,1,1,-7.141971591273348e-15,38.87908250360222Z" fill="#1f77b4" stroke="none"/></g><g transform="translate(480.03677576914237,43.55684751297059)" id="709037"><path id="p_561.4727057857152" d="M-7.141971591273348e-15,38.87908250360222A38.87908250360222,38.87908250360222,0,1,1,7.141971591273348e-15,-38.87908250360222A38.87908250360222,38.87908250360222,0,1,1,-7.141971591273348e-15,38.87908250360222Z" fill="#1f77b4" stroke="none"/></g><g transform="translate(43.31619689011808,517.1357887868824)" id="672929"><path id="p_598.3310681806028" d="M-7.141971591273348e-15,38.87908250360222A38.87908250360222,38.87908250360222,0,1,1,7.141971591273348e-15,-38.87908250360222A38.87908250360222,38.87908250360222,0,1,1,-7.141971591273348e-15,38.87908250360222Z" fill="#1f77b4" stroke="none"/></g><g transform="translate(918.0649641348341,523.9781789027443)" id="670642"><path id="p_1479.9222255411805" d="M-7.141971591273348e-15,38.87908250360222A38.87908250360222,38.87908250360222,0,1,1,7.141971591273348e-15,-38.87908250360222A38.87908250360222,38.87908250360222,0,1,1,-7.141971591273348e-15,38.87908250360222Z" fill="#1f77b4" stroke="none"/></g><g transform="translate(202.59545489195085,193.23081880792955)" id="664921"><path id="p_433.7053562034826" d="M-7.141971591273348e-15,38.87908250360222A38.87908250360222,38.87908250360222,0,1,1,7.141971591273348e-15,-38.87908250360222A38.87908250360222,38.87908250360222,0,1,1,-7.141971591273348e-15,38.87908250360222Z" fill="#1f77b4" stroke="none"/></g><g transform="translate(740.2329894905972,812.5014678522277)" id="664311"><path id="p_1590.613539846427" d="M-7.141971591273348e-15,38.87908250360222A38.87908250360222,38.87908250360222,0,1,1,7.141971591273348e-15,-38.87908250360222A38.87908250360222,38.87908250360222,0,1,1,-7.141971591273348e-15,38.87908250360222Z" fill="#1f77b4" stroke="none"/></g><g transform="translate(232.08375571846898,119.1801414118384)" id="662600"><path id="p_389.1429796339096" d="M-7.141971591273348e-15,38.87908250360222A38.87908250360222,38.87908250360222,0,1,1,7.141971591273348e-15,-38.87908250360222A38.87908250360222,38.87908250360222,0,1,1,-7.141971591273348e-15,38.87908250360222Z" fill="#1f77b4" stroke="none"/></g><g transform="translate(310.71571242349796,88.95112463464284)" id="661000"><path id="p_437.545919561743" d="M-7.141971591273348e-15,38.87908250360222A38.87908250360222,38.87908250360222,0,1,1,7.141971591273348e-15,-38.87908250360222A38.87908250360222,38.87908250360222,0,1,1,-7.141971591273348e-15,38.87908250360222Z" fill="#1f77b4" stroke="none"/></g><g transform="translate(759.8246084933724,152.6952039889286)" id="660187"><path id="p_950.3988949859032" d="M-7.141971591273348e-15,38.87908250360222A38.87908250360222,38.87908250360222,0,1,1,7.141971591273348e-15,-38.87908250360222A38.87908250360222,38.87908250360222,0,1,1,-7.141971591273348e-15,38.87908250360222Z" fill="#1f77b4" stroke="none"/></g><g transform="translate(79.2200227027858,409.72847823745406)" id="655468"><path id="p_526.8275834438421" d="M-7.141971591273348e-15,38.87908250360222A38.87908250360222,38.87908250360222,0,1,1,7.141971591273348e-15,-38.87908250360222A38.87908250360222,38.87908250360222,0,1,1,-7.141971591273348e-15,38.87908250360222Z" fill="#1f77b4" stroke="none"/></g></g><g id="labels"><g transform="translate(425.2166155922659,481.2479038016628)"><text text-anchor="middle" dominant-baseline="text-before-edge" transform="translate(0,-5.6666669845581055)"><tspan x="0" y="0" dy="0" style="font-family: Arial, sans-serif; font-size: 10px; fill: black; font-weight: bold;">Spain,Kingdom of León,Kingdom of Aragon</tspan></text></g><g transform="translate(549.4884246800956,481.2479038016628)"><text text-anchor="middle" dominant-baseline="text-before-edge" transform="translate(0,-5.6666669845581055)"><tspan x="0" y="0" dy="0" style="font-family: Arial, sans-serif; font-size: 10px; fill: black; font-weight: bold;">Serbia</tspan></text></g><g transform="translate(499.09535791986923,581.1749470184697)"><text text-anchor="middle" dominant-baseline="text-before-edge" transform="translate(0,-5.6666669845581055)"><tspan x="0" y="0" dy="0" style="font-family: Arial, sans-serif; font-size: 10px; fill: black; font-weight: bold;">Serbia</tspan></text></g><g transform="translate(497.49399968636254,400.77305031054)"><text text-anchor="middle" dominant-baseline="text-before-edge" transform="translate(0,-5.6666669845581055)"><tspan x="0" y="0" dy="0" style="font-family: Arial, sans-serif; font-size: 10px; fill: black; font-weight: bold;">Turkey</tspan></text></g><g transform="translate(422.7427952486141,373.10863013658496)"><text text-anchor="middle" dominant-baseline="text-before-edge" transform="translate(0,-5.6666669845581055)"><tspan x="0" y="0" dy="0" style="font-family: Arial, sans-serif; font-size: 10px; fill: black; font-weight: bold;">Russia</tspan></text></g><g transform="translate(403.475144643186,587.207946916384)"><text text-anchor="middle" dominant-baseline="text-before-edge" transform="translate(0,-5.6666669845581055)"><tspan x="0" y="0" dy="0" style="font-family: Arial, sans-serif; font-size: 10px; fill: black; font-weight: bold;">United Kingdom</tspan></text></g><g transform="translate(576.3679178920827,389.2853292426969)"><text text-anchor="middle" dominant-baseline="text-before-edge" transform="translate(0,-5.6666669845581055)"><tspan x="0" y="0" dy="0" style="font-family: Arial, sans-serif; font-size: 10px; fill: black; font-weight: bold;">Turkey</tspan></text></g><g transform="translate(593.7330105371308,566.230483764771)"><text text-anchor="middle" dominant-baseline="text-before-edge" transform="translate(0,-5.6666669845581055)"><tspan x="0" y="0" dy="0" style="font-family: Arial, sans-serif; font-size: 10px; fill: black; font-weight: bold;">Russia</tspan></text></g><g transform="translate(349.33484185133307,404.16237526463374)"><text text-anchor="middle" dominant-baseline="text-before-edge" transform="translate(0,-5.6666669845581055)"><tspan x="0" y="0" dy="0" style="font-family: Arial, sans-serif; font-size: 10px; fill: black; font-weight: bold;">Turkey</tspan></text></g><g transform="translate(336.79108538266394,543.5467633662971)"><text text-anchor="middle" dominant-baseline="text-before-edge" transform="translate(0,-5.6666669845581055)"><tspan x="0" y="0" dy="0" style="font-family: Arial, sans-serif; font-size: 10px; fill: black; font-weight: bold;">Germany</tspan></text></g><g transform="translate(484.0764881191,322.20439821698824)"><text text-anchor="middle" dominant-baseline="text-before-edge" transform="translate(0,-5.6666669845581055)"><tspan x="0" y="0" dy="0" style="font-family: Arial, sans-serif; font-size: 10px; fill: black; font-weight: bold;">Spain</tspan></text></g><g transform="translate(636.6389893973264,441.4433645590791)"><text text-anchor="middle" dominant-baseline="text-before-edge" transform="translate(0,-5.6666669845581055)"><tspan x="0" y="0" dy="0" style="font-family: Arial, sans-serif; font-size: 10px; fill: black; font-weight: bold;">Ukraine</tspan></text></g><g transform="translate(562.9504063248202,310.71667714914514)"><text text-anchor="middle" dominant-baseline="text-before-edge" transform="translate(0,-5.6666669845581055)"><tspan x="0" y="0" dy="0" style="font-family: Arial, sans-serif; font-size: 10px; fill: black; font-weight: bold;">Turkey</tspan></text></g><g transform="translate(657.4759915227321,518.3776355368497)"><text text-anchor="middle" dominant-baseline="text-before-edge" transform="translate(0,-5.6666669845581055)"><tspan x="0" y="0" dy="0" style="font-family: Arial, sans-serif; font-size: 10px; fill: black; font-weight: bold;">Italy</tspan></text></g><g transform="translate(441.1278666420494,657.4598880606079)"><text text-anchor="middle" dominant-baseline="text-before-edge" transform="translate(0,-5.6666669845581055)"><tspan x="0" y="0" dy="0" style="font-family: Arial, sans-serif; font-size: 10px; fill: black; font-weight: bold;">Turkey</tspan></text></g><g transform="translate(305.049528717552,470.43358884261306)"><text text-anchor="middle" dominant-baseline="text-before-edge" transform="translate(0,-5.6666669845581055)"><tspan x="0" y="0" dy="0" style="font-family: Arial, sans-serif; font-size: 10px; fill: black; font-weight: bold;">Azerbaijan</tspan></text></g><g transform="translate(572.2903866409684,642.9981630894902)"><text text-anchor="middle" dominant-baseline="text-before-edge" transform="translate(0,-5.6666669845581055)"><tspan x="0" y="0" dy="0" style="font-family: Arial, sans-serif; font-size: 10px; fill: black; font-weight: bold;">Turkey</tspan></text></g><g transform="translate(359.1454863864361,325.06235021873977)"><text text-anchor="middle" dominant-baseline="text-before-edge" transform="translate(0,-5.6666669845581055)"><tspan x="0" y="0" dy="0" style="font-family: Arial, sans-serif; font-size: 10px; fill: black; font-weight: bold;">France</tspan></text></g><g transform="translate(420.47917925692207,274.1581182991431)"><text text-anchor="middle" dominant-baseline="text-before-edge" transform="translate(0,-5.6666669845581055)"><tspan x="0" y="0" dy="0" style="font-family: Arial, sans-serif; font-size: 10px; fill: black; font-weight: bold;">Belarus</tspan></text></g><g transform="translate(332.3214208992545,623.1274444884195)"><text text-anchor="middle" dominant-baseline="text-before-edge" transform="translate(0,-5.6666669845581055)"><tspan x="0" y="0" dy="0" style="font-family: Arial, sans-serif; font-size: 10px; fill: black; font-weight: bold;">Turkey</tspan></text></g><g transform="translate(651.6736372401775,363.16806786403845)"><text text-anchor="middle" dominant-baseline="text-before-edge" transform="translate(0,-5.6666669845581055)"><tspan x="0" y="0" dy="0" style="font-family: Arial, sans-serif; font-size: 10px; fill: black; font-weight: bold;">Allied-occupied Germany</tspan></text></g><g transform="translate(511.610163149119,694.6796219063075)"><text text-anchor="middle" dominant-baseline="text-before-edge" transform="translate(0,-5.6666669845581055)"><tspan x="0" y="0" dy="0" style="font-family: Arial, sans-serif; font-size: 10px; fill: black; font-weight: bold;">Austria</tspan></text></g><g transform="translate(369.9741428981179,693.3793856326436)"><text text-anchor="middle" dominant-baseline="text-before-edge" transform="translate(0,-5.6666669845581055)"><tspan x="0" y="0" dy="0" style="font-family: Arial, sans-serif; font-size: 10px; fill: black; font-weight: bold;">Kazakhstan</tspan></text></g><g transform="translate(667.0462832387524,597.5071004972895)"><text text-anchor="middle" dominant-baseline="text-before-edge" transform="translate(0,-5.6666669845581055)"><tspan x="0" y="0" dy="0" style="font-family: Arial, sans-serif; font-size: 10px; fill: black; font-weight: bold;">Germany</tspan></text></g><g transform="translate(638.256125672915,284.5994157704867)"><text text-anchor="middle" dominant-baseline="text-before-edge" transform="translate(0,-5.6666669845581055)"><tspan x="0" y="0" dy="0" style="font-family: Arial, sans-serif; font-size: 10px; fill: black; font-weight: bold;">Poland</tspan></text></g><g transform="translate(645.60365934259,674.2747798220087)"><text text-anchor="middle" dominant-baseline="text-before-edge" transform="translate(0,-5.6666669845581055)"><tspan x="0" y="0" dy="0" style="font-family: Arial, sans-serif; font-size: 10px; fill: black; font-weight: bold;">Turkey</tspan></text></g><g transform="translate(269.79963078628816,398.94577586522036)"><text text-anchor="middle" dominant-baseline="text-before-edge" transform="translate(0,-5.6666669845581055)"><tspan x="0" y="0" dy="0" style="font-family: Arial, sans-serif; font-size: 10px; fill: black; font-weight: bold;">Turkey</tspan></text></g><g transform="translate(257.6024405612724,534.4791705321053)"><text text-anchor="middle" dominant-baseline="text-before-edge" transform="translate(0,-5.6666669845581055)"><tspan x="0" y="0" dy="0" style="font-family: Arial, sans-serif; font-size: 10px; fill: black; font-weight: bold;">Turkey</tspan></text></g><g transform="translate(713.6845235484145,461.8651268686528)"><text text-anchor="middle" dominant-baseline="text-before-edge" transform="translate(0,-5.6666669845581055)"><tspan x="0" y="0" dy="0" style="font-family: Arial, sans-serif; font-size: 10px; fill: black; font-weight: bold;">Turkey</tspan></text></g><g transform="translate(513.5647889456183,248.15372082089715)"><text text-anchor="middle" dominant-baseline="text-before-edge" transform="translate(0,-5.6666669845581055)"><tspan x="0" y="0" dy="0" style="font-family: Arial, sans-serif; font-size: 10px; fill: black; font-weight: bold;">Romania</tspan></text></g><g transform="translate(279.6102753213912,319.84575081932644)"><text text-anchor="middle" dominant-baseline="text-before-edge" transform="translate(0,-5.6666669845581055)"><tspan x="0" y="0" dy="0" style="font-family: Arial, sans-serif; font-size: 10px; fill: black; font-weight: bold;">Turkey</tspan></text></g><g transform="translate(253.13277607786293,614.0598516542277)"><text text-anchor="middle" dominant-baseline="text-before-edge" transform="translate(0,-5.6666669845581055)"><tspan x="0" y="0" dy="0" style="font-family: Arial, sans-serif; font-size: 10px; fill: black; font-weight: bold;">Hungary</tspan></text></g><g transform="translate(728.7191713912655,383.5898301736121)"><text text-anchor="middle" dominant-baseline="text-before-edge" transform="translate(0,-5.6666669845581055)"><tspan x="0" y="0" dy="0" style="font-family: Arial, sans-serif; font-size: 10px; fill: black; font-weight: bold;">Spain</tspan></text></g><g transform="translate(449.96748008344025,200.107440903052)"><text text-anchor="middle" dominant-baseline="text-before-edge" transform="translate(0,-5.6666669845581055)"><tspan x="0" y="0" dy="0" style="font-family: Arial, sans-serif; font-size: 10px; fill: black; font-weight: bold;">Russia</tspan></text></g><g transform="translate(444.1357798631128,737.1092142756472)"><text text-anchor="middle" dominant-baseline="text-before-edge" transform="translate(0,-5.6666669845581055)"><tspan x="0" y="0" dy="0" style="font-family: Arial, sans-serif; font-size: 10px; fill: black; font-weight: bold;">Turkey</tspan></text></g><g transform="translate(730.7892642243537,549.6542522693683)"><text text-anchor="middle" dominant-baseline="text-before-edge" transform="translate(0,-5.6666669845581055)"><tspan x="0" y="0" dy="0" style="font-family: Arial, sans-serif; font-size: 10px; fill: black; font-weight: bold;">Germany</tspan></text></g><g transform="translate(584.9234358507406,725.9562386388261)"><text text-anchor="middle" dominant-baseline="text-before-edge" transform="translate(0,-5.6666669845581055)"><tspan x="0" y="0" dy="0" style="font-family: Arial, sans-serif; font-size: 10px; fill: black; font-weight: bold;">Russia</tspan></text></g><g transform="translate(222.3525426300086,462.9913575547126)"><text text-anchor="middle" dominant-baseline="text-before-edge" transform="translate(0,-5.6666669845581055)"><tspan x="0" y="0" dy="0" style="font-family: Arial, sans-serif; font-size: 10px; fill: black; font-weight: bold;">Turkey</tspan></text></g><g transform="translate(345.72797481917365,246.49369812518805)"><text text-anchor="middle" dominant-baseline="text-before-edge" transform="translate(0,-5.6666669845581055)"><tspan x="0" y="0" dy="0" style="font-family: Arial, sans-serif; font-size: 10px; fill: black; font-weight: bold;">Ukraine</tspan></text></g><g transform="translate(786.9977962500361,493.14174360117136)"><text text-anchor="middle" dominant-baseline="text-before-edge" transform="translate(0,-5.6666669845581055)"><tspan x="0" y="0" dy="0" style="font-family: Arial, sans-serif; font-size: 10px; fill: black; font-weight: bold;">Turkey</tspan></text></g><g transform="translate(372.9820561191814,773.0287118476829)"><text text-anchor="middle" dominant-baseline="text-before-edge" transform="translate(0,-5.6666669845581055)"><tspan x="0" y="0" dy="0" style="font-family: Arial, sans-serif; font-size: 10px; fill: black; font-weight: bold;">Bulgaria</tspan></text></g><g transform="translate(588.8705082937131,222.0364594422387)"><text text-anchor="middle" dominant-baseline="text-before-edge" transform="translate(0,-5.6666669845581055)"><tspan x="0" y="0" dy="0" style="font-family: Arial, sans-serif; font-size: 10px; fill: black; font-weight: bold;">Serbia</tspan></text></g><g transform="translate(290.30781620261905,690.8616288331805)"><text text-anchor="middle" dominant-baseline="text-before-edge" transform="translate(0,-5.6666669845581055)"><tspan x="0" y="0" dy="0" style="font-family: Arial, sans-serif; font-size: 10px; fill: black; font-weight: bold;">Turkey</tspan></text></g><g transform="translate(266.1927637541288,241.2770987257747)"><text text-anchor="middle" dominant-baseline="text-before-edge" transform="translate(0,-5.6666669845581055)"><tspan x="0" y="0" dy="0" style="font-family: Arial, sans-serif; font-size: 10px; fill: black; font-weight: bold;">Czech Republic</tspan></text></g><g transform="translate(715.301659824003,305.0211780800604)"><text text-anchor="middle" dominant-baseline="text-before-edge" transform="translate(0,-5.6666669845581055)"><tspan x="0" y="0" dy="0" style="font-family: Arial, sans-serif; font-size: 10px; fill: black; font-weight: bold;">Italy</tspan></text></g><g transform="translate(211.11917138122755,681.7940359989886)"><text text-anchor="middle" dominant-baseline="text-before-edge" transform="translate(0,-5.6666669845581055)"><tspan x="0" y="0" dy="0" style="font-family: Arial, sans-serif; font-size: 10px; fill: black; font-weight: bold;">German Democratic Republic</tspan></text></g><g transform="translate(722.8077317754555,654.4607971775209)"><text text-anchor="middle" dominant-baseline="text-before-edge" transform="translate(0,-5.6666669845581055)"><tspan x="0" y="0" dy="0" style="font-family: Arial, sans-serif; font-size: 10px; fill: black; font-weight: bold;">Turkey</tspan></text></g><g transform="translate(514.6180763701824,774.3289481213468)"><text text-anchor="middle" dominant-baseline="text-before-edge" transform="translate(0,-5.6666669845581055)"><tspan x="0" y="0" dy="0" style="font-family: Arial, sans-serif; font-size: 10px; fill: black; font-weight: bold;">Russia</tspan></text></g><g transform="translate(786.5507127610567,606.6079489495997)"><text text-anchor="middle" dominant-baseline="text-before-edge" transform="translate(0,-5.6666669845581055)"><tspan x="0" y="0" dy="0" style="font-family: Arial, sans-serif; font-size: 10px; fill: black; font-weight: bold;">Russia</tspan></text></g><g transform="translate(587.931349071804,805.6055648538654)"><text text-anchor="middle" dominant-baseline="text-before-edge" transform="translate(0,-5.6666669845581055)"><tspan x="0" y="0" dy="0" style="font-family: Arial, sans-serif; font-size: 10px; fill: black; font-weight: bold;">Turkey</tspan></text></g><g transform="translate(206.2023219241102,350.89949594737516)"><text text-anchor="middle" dominant-baseline="text-before-edge" transform="translate(0,-5.6666669845581055)"><tspan x="0" y="0" dy="0" style="font-family: Arial, sans-serif; font-size: 10px; fill: black; font-weight: bold;">Belgium</tspan></text></g><g transform="translate(158.7552337678306,414.94507763686744)"><text text-anchor="middle" dominant-baseline="text-before-edge" transform="translate(0,-5.6666669845581055)"><tspan x="0" y="0" dy="0" style="font-family: Arial, sans-serif; font-size: 10px; fill: black; font-weight: bold;">Russia</tspan></text></g><g transform="translate(375.21627564569184,172.44302072909693)"><text text-anchor="middle" dominant-baseline="text-before-edge" transform="translate(0,-5.6666669845581055)"><tspan x="0" y="0" dy="0" style="font-family: Arial, sans-serif; font-size: 10px; fill: black; font-weight: bold;">Kazakhstan</tspan></text></g><g transform="translate(178.06722949622758,529.262571132692)"><text text-anchor="middle" dominant-baseline="text-before-edge" transform="translate(0,-5.6666669845581055)"><tspan x="0" y="0" dy="0" style="font-family: Arial, sans-serif; font-size: 10px; fill: black; font-weight: bold;">Kazakhstan</tspan></text></g><g transform="translate(173.59756501281805,608.8432522548144)"><text text-anchor="middle" dominant-baseline="text-before-edge" transform="translate(0,-5.6666669845581055)"><tspan x="0" y="0" dy="0" style="font-family: Arial, sans-serif; font-size: 10px; fill: black; font-weight: bold;">Russia</tspan></text></g><g transform="translate(802.0324440928871,414.8664469061307)"><text text-anchor="middle" dominant-baseline="text-before-edge" transform="translate(0,-5.6666669845581055)"><tspan x="0" y="0" dy="0" style="font-family: Arial, sans-serif; font-size: 10px; fill: black; font-weight: bold;">Russia</tspan></text></g><g transform="translate(528.5994367884692,169.87842412585638)"><text text-anchor="middle" dominant-baseline="text-before-edge" transform="translate(0,-5.6666669845581055)"><tspan x="0" y="0" dy="0" style="font-family: Arial, sans-serif; font-size: 10px; fill: black; font-weight: bold;">Russia</tspan></text></g><g transform="translate(660.0210038366685,752.6661242816763)"><text text-anchor="middle" dominant-baseline="text-before-edge" transform="translate(0,-5.6666669845581055)"><tspan x="0" y="0" dy="0" style="font-family: Arial, sans-serif; font-size: 10px; fill: black; font-weight: bold;">United Kingdom</tspan></text></g><g transform="translate(465.0021279262913,121.8321442080113)"><text text-anchor="middle" dominant-baseline="text-before-edge" transform="translate(0,-5.6666669845581055)"><tspan x="0" y="0" dy="0" style="font-family: Arial, sans-serif; font-size: 10px; fill: black; font-weight: bold;">Turkey</tspan></text></g><g transform="translate(293.3157294236825,770.5109550482198)"><text text-anchor="middle" dominant-baseline="text-before-edge" transform="translate(0,-5.6666669845581055)"><tspan x="0" y="0" dy="0" style="font-family: Arial, sans-serif; font-size: 10px; fill: black; font-weight: bold;">Georgia</tspan></text></g><g transform="translate(667.7444264994332,210.5487383743956)"><text text-anchor="middle" dominant-baseline="text-before-edge" transform="translate(0,-5.6666669845581055)"><tspan x="0" y="0" dy="0" style="font-family: Arial, sans-serif; font-size: 10px; fill: black; font-weight: bold;">Russia</tspan></text></g><g transform="translate(744.7899606505212,230.9705006839693)"><text text-anchor="middle" dominant-baseline="text-before-edge" transform="translate(0,-5.6666669845581055)"><tspan x="0" y="0" dy="0" style="font-family: Arial, sans-serif; font-size: 10px; fill: black; font-weight: bold;">Germany</tspan></text></g><g transform="translate(737.2250762695338,732.8521416371885)"><text text-anchor="middle" dominant-baseline="text-before-edge" transform="translate(0,-5.6666669845581055)"><tspan x="0" y="0" dy="0" style="font-family: Arial, sans-serif; font-size: 10px; fill: black; font-weight: bold;">Russia</tspan></text></g><g transform="translate(447.1436930841763,816.7585404906864)"><text text-anchor="middle" dominant-baseline="text-before-edge" transform="translate(0,-5.6666669845581055)"><tspan x="0" y="0" dy="0" style="font-family: Arial, sans-serif; font-size: 10px; fill: black; font-weight: bold;">Kazakhstan</tspan></text></g><g transform="translate(790.0528642617514,332.6855982540153)"><text text-anchor="middle" dominant-baseline="text-before-edge" transform="translate(0,-5.6666669845581055)"><tspan x="0" y="0" dy="0" style="font-family: Arial, sans-serif; font-size: 10px; fill: black; font-weight: bold;">Russia</tspan></text></g><g transform="translate(192.7848103568478,272.33084385382347)"><text text-anchor="middle" dominant-baseline="text-before-edge" transform="translate(0,-5.6666669845581055)"><tspan x="0" y="0" dy="0" style="font-family: Arial, sans-serif; font-size: 10px; fill: black; font-weight: bold;">Russia</tspan></text></g><g transform="translate(842.7592447867391,550.0954402814028)"><text text-anchor="middle" dominant-baseline="text-before-edge" transform="translate(0,-5.6666669845581055)"><tspan x="0" y="0" dy="0" style="font-family: Arial, sans-serif; font-size: 10px; fill: black; font-weight: bold;">Turkey</tspan></text></g><g transform="translate(114.46992063404957,481.21629121484676)"><text text-anchor="middle" dominant-baseline="text-before-edge" transform="translate(0,-5.6666669845581055)"><tspan x="0" y="0" dy="0" style="font-family: Arial, sans-serif; font-size: 10px; fill: black; font-weight: bold;">Russia</tspan></text></g><g transform="translate(375.9899693402448,852.678038062722)"><text text-anchor="middle" dominant-baseline="text-before-edge" transform="translate(0,-5.6666669845581055)"><tspan x="0" y="0" dy="0" style="font-family: Arial, sans-serif; font-size: 10px; fill: black; font-weight: bold;">Sweden</tspan></text></g><g transform="translate(663.0289170577319,832.3154504967156)"><text text-anchor="middle" dominant-baseline="text-before-edge" transform="translate(0,-5.6666669845581055)"><tspan x="0" y="0" dy="0" style="font-family: Arial, sans-serif; font-size: 10px; fill: black; font-weight: bold;">Ukraine</tspan></text></g><g transform="translate(295.681064580647,167.22642132968355)"><text text-anchor="middle" dominant-baseline="text-before-edge" transform="translate(0,-5.6666669845581055)"><tspan x="0" y="0" dy="0" style="font-family: Arial, sans-serif; font-size: 10px; fill: black; font-weight: bold;">Russia</tspan></text></g><g transform="translate(603.9051561365642,143.761162747198)"><text text-anchor="middle" dominant-baseline="text-before-edge" transform="translate(0,-5.6666669845581055)"><tspan x="0" y="0" dy="0" style="font-family: Arial, sans-serif; font-size: 10px; fill: black; font-weight: bold;">Netherlands</tspan></text></g><g transform="translate(863.366136963373,363.9622149865339)"><text text-anchor="middle" dominant-baseline="text-before-edge" transform="translate(0,-5.6666669845581055)"><tspan x="0" y="0" dy="0" style="font-family: Arial, sans-serif; font-size: 10px; fill: black; font-weight: bold;">Italy</tspan></text></g><g transform="translate(131.58396031618264,676.5774365995753)"><text text-anchor="middle" dominant-baseline="text-before-edge" transform="translate(0,-5.6666669845581055)"><tspan x="0" y="0" dy="0" style="font-family: Arial, sans-serif; font-size: 10px; fill: black; font-weight: bold;">France</tspan></text></g><g transform="translate(390.25092348854287,94.16772403405628)"><text text-anchor="middle" dominant-baseline="text-before-edge" transform="translate(0,-5.6666669845581055)"><tspan x="0" y="0" dy="0" style="font-family: Arial, sans-serif; font-size: 10px; fill: black; font-weight: bold;">Turkey</tspan></text></g><g transform="translate(682.7790743422843,132.27344167935496)"><text text-anchor="middle" dominant-baseline="text-before-edge" transform="translate(0,-5.6666669845581055)"><tspan x="0" y="0" dy="0" style="font-family: Arial, sans-serif; font-size: 10px; fill: black; font-weight: bold;">Turkey</tspan></text></g><g transform="translate(214.12708460229095,761.443362214028)"><text text-anchor="middle" dominant-baseline="text-before-edge" transform="translate(0,-5.6666669845581055)"><tspan x="0" y="0" dy="0" style="font-family: Arial, sans-serif; font-size: 10px; fill: black; font-weight: bold;">Russia</tspan></text></g><g transform="translate(800.9680572551351,684.9992934092674)"><text text-anchor="middle" dominant-baseline="text-before-edge" transform="translate(0,-5.6666669845581055)"><tspan x="0" y="0" dy="0" style="font-family: Arial, sans-serif; font-size: 10px; fill: black; font-weight: bold;">Italy</tspan></text></g><g transform="translate(517.6259895912458,853.9782743363861)"><text text-anchor="middle" dominant-baseline="text-before-edge" transform="translate(0,-5.6666669845581055)"><tspan x="0" y="0" dy="0" style="font-family: Arial, sans-serif; font-size: 10px; fill: black; font-weight: bold;">Turkey</tspan></text></g><g transform="translate(127.0136771027187,341.8319031131834)"><text text-anchor="middle" dominant-baseline="text-before-edge" transform="translate(0,-5.6666669845581055)"><tspan x="0" y="0" dy="0" style="font-family: Arial, sans-serif; font-size: 10px; fill: black; font-weight: bold;">Poland</tspan></text></g><g transform="translate(862.3035155981308,467.0244822225129)"><text text-anchor="middle" dominant-baseline="text-before-edge" transform="translate(0,-5.6666669845581055)"><tspan x="0" y="0" dy="0" style="font-family: Arial, sans-serif; font-size: 10px; fill: black; font-weight: bold;">United Kingdom</tspan></text></g><g transform="translate(819.5411650882697,258.63492085792416)"><text text-anchor="middle" dominant-baseline="text-before-edge" transform="translate(0,-5.6666669845581055)"><tspan x="0" y="0" dy="0" style="font-family: Arial, sans-serif; font-size: 10px; fill: black; font-weight: bold;">Germany</tspan></text></g><g transform="translate(590.9392622928674,885.2548910689047)"><text text-anchor="middle" dominant-baseline="text-before-edge" transform="translate(0,-5.6666669845581055)"><tspan x="0" y="0" dy="0" style="font-family: Arial, sans-serif; font-size: 10px; fill: black; font-weight: bold;">Turkey</tspan></text></g><g transform="translate(106.91350575229609,565.1820687047275)"><text text-anchor="middle" dominant-baseline="text-before-edge" transform="translate(0,-5.6666669845581055)"><tspan x="0" y="0" dy="0" style="font-family: Arial, sans-serif; font-size: 10px; fill: black; font-weight: bold;">Croatia</tspan></text></g><g transform="translate(296.323642644746,850.160281263259)"><text text-anchor="middle" dominant-baseline="text-before-edge" transform="translate(0,-5.6666669845581055)"><tspan x="0" y="0" dy="0" style="font-family: Arial, sans-serif; font-size: 10px; fill: black; font-weight: bold;">Russia</tspan></text></g><g transform="translate(113.59616553545618,263.26325101963164)"><text text-anchor="middle" dominant-baseline="text-before-edge" transform="translate(0,-5.6666669845581055)"><tspan x="0" y="0" dy="0" style="font-family: Arial, sans-serif; font-size: 10px; fill: black; font-weight: bold;">Ukraine</tspan></text></g><g transform="translate(543.6340846313203,91.60312743081579)"><text text-anchor="middle" dominant-baseline="text-before-edge" transform="translate(0,-5.6666669845581055)"><tspan x="0" y="0" dy="0" style="font-family: Arial, sans-serif; font-size: 10px; fill: black; font-weight: bold;">Ukraine</tspan></text></g><g transform="translate(480.03677576914237,43.55684751297059)"><text text-anchor="middle" dominant-baseline="text-before-edge" transform="translate(0,-5.6666669845581055)"><tspan x="0" y="0" dy="0" style="font-family: Arial, sans-serif; font-size: 10px; fill: black; font-weight: bold;">Norway</tspan></text></g><g transform="translate(43.31619689011808,517.1357887868824)"><text text-anchor="middle" dominant-baseline="text-before-edge" transform="translate(0,-5.6666669845581055)"><tspan x="0" y="0" dy="0" style="font-family: Arial, sans-serif; font-size: 10px; fill: black; font-weight: bold;">Poland</tspan></text></g><g transform="translate(918.0649641348341,523.9781789027443)"><text text-anchor="middle" dominant-baseline="text-before-edge" transform="translate(0,-5.6666669845581055)"><tspan x="0" y="0" dy="0" style="font-family: Arial, sans-serif; font-size: 10px; fill: black; font-weight: bold;">Poland</tspan></text></g><g transform="translate(202.59545489195085,193.23081880792955)"><text text-anchor="middle" dominant-baseline="text-before-edge" transform="translate(0,-5.6666669845581055)"><tspan x="0" y="0" dy="0" style="font-family: Arial, sans-serif; font-size: 10px; fill: black; font-weight: bold;">Finland</tspan></text></g><g transform="translate(740.2329894905972,812.5014678522277)"><text text-anchor="middle" dominant-baseline="text-before-edge" transform="translate(0,-5.6666669845581055)"><tspan x="0" y="0" dy="0" style="font-family: Arial, sans-serif; font-size: 10px; fill: black; font-weight: bold;">Netherlands</tspan></text></g><g transform="translate(232.08375571846898,119.1801414118384)"><text text-anchor="middle" dominant-baseline="text-before-edge" transform="translate(0,-5.6666669845581055)"><tspan x="0" y="0" dy="0" style="font-family: Arial, sans-serif; font-size: 10px; fill: black; font-weight: bold;">Russia</tspan></text></g><g transform="translate(310.71571242349796,88.95112463464284)"><text text-anchor="middle" dominant-baseline="text-before-edge" transform="translate(0,-5.6666669845581055)"><tspan x="0" y="0" dy="0" style="font-family: Arial, sans-serif; font-size: 10px; fill: black; font-weight: bold;">Germany</tspan></text></g><g transform="translate(759.8246084933724,152.6952039889286)"><text text-anchor="middle" dominant-baseline="text-before-edge" transform="translate(0,-5.6666669845581055)"><tspan x="0" y="0" dy="0" style="font-family: Arial, sans-serif; font-size: 10px; fill: black; font-weight: bold;">Latvia</tspan></text></g><g transform="translate(79.2200227027858,409.72847823745406)"><text text-anchor="middle" dominant-baseline="text-before-edge" transform="translate(0,-5.6666669845581055)"><tspan x="0" y="0" dy="0" style="font-family: Arial, sans-serif; font-size: 10px; fill: black; font-weight: bold;">Netherlands</tspan></text></g></g></g></svg>