<svg xmlns="http://www.w3.org/2000/svg" width="805" height="600"><rect width="805" height="600" x="0" y="0" fill="#FFFFFF" id="background"/><g transform="translate(20,20)" id="viz"><g id="nodes"><g transform="translate(383.5,281)"><path id="p_943.5" d="M-5.143516556418883e-14,280A280,280,0,1,1,5.143516556418883e-14,-280A280,280,0,1,1,-5.143516556418883e-14,280Z" fill="none" stroke="#ccc"/></g><g transform="translate(342.53057874510034,273.81580741912336)" id=""><path id="p_709.8648230881009" d="M-1.7362755185885575e-14,94.51843692387718A94.51843692387718,94.51843692387718,0,1,1,1.7362755185885575e-14,-94.51843692387718A94.51843692387718,94.51843692387718,0,1,1,-1.7362755185885575e-14,94.51843692387718Z" fill="#1f77b4" stroke="none"/></g><g transform="translate(471.089959206137,273.81580741912336)" id="1968-01-01T00:00:00Z"><path id="p_776.0120832549056" d="M-5.897834683935965e-15,32.10631662964521A32.10631662964521,32.10631662964521,0,1,1,5.897834683935965e-15,-32.10631662964521A32.10631662964521,32.10631662964521,0,1,1,-5.897834683935965e-15,32.10631662964521Z" fill="#1f77b4" stroke="none"/></g><g transform="translate(451.21246422599813,330.69838384423076)" id="1982-01-01T00:00:00Z"><path id="p_807.1255458245172" d="M-4.815561854310673e-15,26.21469775428831A26.21469775428831,26.21469775428831,0,1,1,4.815561854310673e-15,-26.21469775428831A26.21469775428831,26.21469775428831,0,1,1,-4.815561854310673e-15,26.21469775428831Z" fill="#1f77b4" stroke="none"/></g><g transform="translate(451.21246422599813,216.933230994016)" id="1978-01-01T00:00:00Z"><path id="p_693.3603929743024" d="M-4.815561854310673e-15,26.21469775428831A26.21469775428831,26.21469775428831,0,1,1,4.815561854310673e-15,-26.21469775428831A26.21469775428831,26.21469775428831,0,1,1,-4.815561854310673e-15,26.21469775428831Z" fill="#1f77b4" stroke="none"/></g><g transform="translate(415.9568216736518,175.55102948807365)" id="1936-01-01T00:00:00Z"><path id="p_616.7225489160138" d="M-4.815561854310673e-15,26.21469775428831A26.21469775428831,26.21469775428831,0,1,1,4.815561854310673e-15,-26.21469775428831A26.21469775428831,26.21469775428831,0,1,1,-4.815561854310673e-15,26.21469775428831Z" fill="#1f77b4" stroke="none"/></g><g transform="translate(416.4688237691667,361.882580592892)" id="1972-01-01T00:00:00Z"><path id="p_795.8879949108717" d="M-3.4051164424063416e-15,18.53659054881302A18.53659054881302,18.53659054881302,0,1,1,3.4051164424063416e-15,-18.53659054881302A18.53659054881302,18.53659054881302,0,1,1,-3.4051164424063416e-15,18.53659054881302Z" fill="#1f77b4" stroke="none"/></g><g transform="translate(371.1485002262213,162.44419889801384)" id="1987-05-10T00:00:00Z"><path id="p_551.1292896730482" d="M-3.4051164424063416e-15,18.53659054881302A18.53659054881302,18.53659054881302,0,1,1,3.4051164424063416e-15,-18.53659054881302A18.53659054881302,18.53659054881302,0,1,1,-3.4051164424063416e-15,18.53659054881302Z" fill="#1f77b4" stroke="none"/></g><g transform="translate(382.7726379332714,381.53394557038655)" id="1962-10-19T00:00:00Z"><path id="p_781.843174052471" d="M-3.4051164424063416e-15,18.53659054881302A18.53659054881302,18.53659054881302,0,1,1,3.4051164424063416e-15,-18.53659054881302A18.53659054881302,18.53659054881302,0,1,1,-3.4051164424063416e-15,18.53659054881302Z" fill="#1f77b4" stroke="none"/></g><g transform="translate(496.6053986194586,227.84451809516906)" id="1764-01-01T00:00:00Z"><path id="p_741.9865072634407" d="M-3.4051164424063416e-15,18.53659054881302A18.53659054881302,18.53659054881302,0,1,1,3.4051164424063416e-15,-18.53659054881302A18.53659054881302,18.53659054881302,0,1,1,-3.4051164424063416e-15,18.53659054881302Z" fill="#1f77b4" stroke="none"/></g><g transform="translate(344.44554838623867,388.7895153081551)" id="1965-01-01T00:00:00Z"><path id="p_750.7716542432069" d="M-3.4051164424063416e-15,18.53659054881302A18.53659054881302,18.53659054881302,0,1,1,3.4051164424063416e-15,-18.53659054881302A18.53659054881302,18.53659054881302,0,1,1,-3.4051164424063416e-15,18.53659054881302Z" fill="#1f77b4" stroke="none"/></g><g transform="translate(496.6053986194586,319.7870967430777)" id="1849-01-01T00:00:00Z"><path id="p_833.9290859113493" d="M-3.4051164424063416e-15,18.53659054881302A18.53659054881302,18.53659054881302,0,1,1,3.4051164424063416e-15,-18.53659054881302A18.53659054881302,18.53659054881302,0,1,1,-3.4051164424063416e-15,18.53659054881302Z" fill="#1f77b4" stroke="none"/></g><g transform="translate(332.26883674067193,159.28495015561805)" id="1957-03-13T00:00:00Z"><path id="p_509.090377445103" d="M-3.4051164424063416e-15,18.53659054881302A18.53659054881302,18.53659054881302,0,1,1,3.4051164424063416e-15,-18.53659054881302A18.53659054881302,18.53659054881302,0,1,1,-3.4051164424063416e-15,18.53659054881302Z" fill="#1f77b4" stroke="none"/></g><g transform="translate(452.269334912393,377.37233485981363)" id="1959-01-01T00:00:00Z"><path id="p_847.1782603210196" d="M-3.4051164424063416e-15,18.53659054881302A18.53659054881302,18.53659054881302,0,1,1,3.4051164424063416e-15,-18.53659054881302A18.53659054881302,18.53659054881302,0,1,1,-3.4051164424063416e-15,18.53659054881302Z" fill="#1f77b4" stroke="none"/></g><g transform="translate(462.4775165440975,171.62679353394554)" id="2004-07-10T00:00:00Z"><path id="p_651.640900626856" d="M-3.4051164424063416e-15,18.53659054881302A18.53659054881302,18.53659054881302,0,1,1,3.4051164424063416e-15,-18.53659054881302A18.53659054881302,18.53659054881302,0,1,1,-3.4051164424063416e-15,18.53659054881302Z" fill="#1f77b4" stroke="none"/></g><g transform="translate(305.8980913879183,382.81434632907747)" id="1909-03-07T00:00:00Z"><path id="p_706.2490282658088" d="M-3.4051164424063416e-15,18.53659054881302A18.53659054881302,18.53659054881302,0,1,1,3.4051164424063416e-15,-18.53659054881302A18.53659054881302,18.53659054881302,0,1,1,-3.4051164424063416e-15,18.53659054881302Z" fill="#1f77b4" stroke="none"/></g><g transform="translate(416.6393121407691,400.890016026166)" id="1985-10-04T00:00:00Z"><path id="p_835.0659187157481" d="M-3.4051164424063416e-15,18.53659054881302A18.53659054881302,18.53659054881302,0,1,1,3.4051164424063416e-15,-18.53659054881302A18.53659054881302,18.53659054881302,0,1,1,-3.4051164424063416e-15,18.53659054881302Z" fill="#1f77b4" stroke="none"/></g><g transform="translate(294.57005564756764,169.30547855785767)" id="1912-01-01T00:00:00Z"><path id="p_481.41212475423833" d="M-3.4051164424063416e-15,18.53659054881302A18.53659054881302,18.53659054881302,0,1,1,3.4051164424063416e-15,-18.53659054881302A18.53659054881302,18.53659054881302,0,1,1,-3.4051164424063416e-15,18.53659054881302Z" fill="#1f77b4" stroke="none"/></g><g transform="translate(396.7391272139641,133.00393912096538)" id="1878-10-20T00:00:00Z"><path id="p_547.2796568837425" d="M-3.4051164424063416e-15,18.53659054881302A18.53659054881302,18.53659054881302,0,1,1,3.4051164424063416e-15,-18.53659054881302A18.53659054881302,18.53659054881302,0,1,1,-3.4051164424063416e-15,18.53659054881302Z" fill="#1f77b4" stroke="none"/></g><g transform="translate(271.56616224957475,364.2960384418637)" id="1958-07-01T00:00:00Z"><path id="p_653.3987912402514" d="M-3.4051164424063416e-15,18.53659054881302A18.53659054881302,18.53659054881302,0,1,1,3.4051164424063416e-15,-18.53659054881302A18.53659054881302,18.53659054881302,0,1,1,-3.4051164424063416e-15,18.53659054881302Z" fill="#1f77b4" stroke="none"/></g><g transform="translate(369.8926008715922,418.3539636401222)" id="1944-07-21T00:00:00Z"><path id="p_805.7831550605274" d="M-3.4051164424063416e-15,18.53659054881302A18.53659054881302,18.53659054881302,0,1,1,3.4051164424063416e-15,-18.53659054881302A18.53659054881302,18.53659054881302,0,1,1,-3.4051164424063416e-15,18.53659054881302Z" fill="#1f77b4" stroke="none"/></g><g transform="translate(452.43982328399545,416.37977029308763)" id="1450-01-01T00:00:00Z"><path id="p_886.3561841258961" d="M-3.4051164424063416e-15,18.53659054881302A18.53659054881302,18.53659054881302,0,1,1,3.4051164424063416e-15,-18.53659054881302A18.53659054881302,18.53659054881302,0,1,1,-3.4051164424063416e-15,18.53659054881302Z" fill="#1f77b4" stroke="none"/></g><g transform="translate(262.3903898502766,191.3526596597706)" id="1939-01-31T00:00:00Z"><path id="p_471.27964005886025" d="M-3.4051164424063416e-15,18.53659054881302A18.53659054881302,18.53659054881302,0,1,1,3.4051164424063416e-15,-18.53659054881302A18.53659054881302,18.53659054881302,0,1,1,-3.4051164424063416e-15,18.53659054881302Z" fill="#1f77b4" stroke="none"/></g><g transform="translate(487.3320213534283,360.2779759977934)" id="1957-04-21T00:00:00Z"><path id="p_865.1465879000347" d="M-3.4051164424063416e-15,18.53659054881302A18.53659054881302,18.53659054881302,0,1,1,3.4051164424063416e-15,-18.53659054881302A18.53659054881302,18.53659054881302,0,1,1,-3.4051164424063416e-15,18.53659054881302Z" fill="#1f77b4" stroke="none"/></g><g transform="translate(497.47881867852607,188.84648964799874)" id="1915-03-15T00:00:00Z"><path id="p_703.8618988753378" d="M-3.4051164424063416e-15,18.53659054881302A18.53659054881302,18.53659054881302,0,1,1,3.4051164424063416e-15,-18.53659054881302A18.53659054881302,18.53659054881302,0,1,1,-3.4051164424063416e-15,18.53659054881302Z" fill="#1f77b4" stroke="none"/></g><g transform="translate(524.1540724356529,347.4037521585117)" id="1975-09-09T00:00:00Z"><path id="p_889.0944151429776" d="M-3.4051164424063416e-15,18.53659054881302A18.53659054881302,18.53659054881302,0,1,1,3.4051164424063416e-15,-18.53659054881302A18.53659054881302,18.53659054881302,0,1,1,-3.4051164424063416e-15,18.53659054881302Z" fill="#1f77b4" stroke="none"/></g><g transform="translate(521.2562493753267,258.0760354632703)" id="1923-01-01T00:00:00Z"><path id="p_796.86887538741" d="M-3.4051164424063416e-15,18.53659054881302A18.53659054881302,18.53659054881302,0,1,1,3.4051164424063416e-15,-18.53659054881302A18.53659054881302,18.53659054881302,0,1,1,-3.4051164424063416e-15,18.53659054881302Z" fill="#1f77b4" stroke="none"/></g><g transform="translate(527.9087115927088,296.5123962667099)" id="1967-01-01T00:00:00Z"><path id="p_841.9576984082317" d="M-3.4051164424063416e-15,18.53659054881302A18.53659054881302,18.53659054881302,0,1,1,3.4051164424063416e-15,-18.53659054881302A18.53659054881302,18.53659054881302,0,1,1,-3.4051164424063416e-15,18.53659054881302Z" fill="#1f77b4" stroke="none"/></g><g transform="translate(354.4446581512354,127.19379825773999)" id="2000-04-11T00:00:00Z"><path id="p_499.17504695778837" d="M-3.4051164424063416e-15,18.53659054881302A18.53659054881302,18.53659054881302,0,1,1,3.4051164424063416e-15,-18.53659054881302A18.53659054881302,18.53659054881302,0,1,1,-3.4051164424063416e-15,18.53659054881302Z" fill="#1f77b4" stroke="none"/></g><g transform="translate(245.40054930720837,335.3656083600941)" id="1942-01-01T00:00:00Z"><path id="p_598.3027482161154" d="M-3.4051164424063416e-15,18.53659054881302A18.53659054881302,18.53659054881302,0,1,1,3.4051164424063416e-15,-18.53659054881302A18.53659054881302,18.53659054881302,0,1,1,-3.4051164424063416e-15,18.53659054881302Z" fill="#1f77b4" stroke="none"/></g><g transform="translate(403.75927507908995,437.7100340959016)" id="1978-05-20T00:00:00Z"><path id="p_859.0058997238046" d="M-3.4051164424063416e-15,18.53659054881302A18.53659054881302,18.53659054881302,0,1,1,3.4051164424063416e-15,-18.53659054881302A18.53659054881302,18.53659054881302,0,1,1,-3.4051164424063416e-15,18.53659054881302Z" fill="#1f77b4" stroke="none"/></g><g transform="translate(239.43295337353152,222.88938738764534)" id="1984-01-01T00:00:00Z"><path id="p_479.8589313099899" d="M-3.4051164424063416e-15,18.53659054881302A18.53659054881302,18.53659054881302,0,1,1,3.4051164424063416e-15,-18.53659054881302A18.53659054881302,18.53659054881302,0,1,1,-3.4051164424063416e-15,18.53659054881302Z" fill="#1f77b4" stroke="none"/></g><g transform="translate(443.2599502866223,137.68133385955852)" id="1980-08-01T00:00:00Z"><path id="p_598.4778746949938" d="M-3.4051164424063416e-15,18.53659054881302A18.53659054881302,18.53659054881302,0,1,1,3.4051164424063416e-15,-18.53659054881302A18.53659054881302,18.53659054881302,0,1,1,-3.4051164424063416e-15,18.53659054881302Z" fill="#1f77b4" stroke="none"/></g><g transform="translate(319.99717175929254,419.18500783045)" id="1970-11-28T00:00:00Z"><path id="p_756.7187701385556" d="M-3.4051164424063416e-15,18.53659054881302A18.53659054881302,18.53659054881302,0,1,1,3.4051164424063416e-15,-18.53659054881302A18.53659054881302,18.53659054881302,0,1,1,-3.4051164424063416e-15,18.53659054881302Z" fill="#1f77b4" stroke="none"/></g><g transform="translate(230.412292167724,299.35226037234673)" id="1982-03-31T00:00:00Z"><path id="p_547.3011430888838" d="M-3.4051164424063416e-15,18.53659054881302A18.53659054881302,18.53659054881302,0,1,1,3.4051164424063416e-15,-18.53659054881302A18.53659054881302,18.53659054881302,0,1,1,-3.4051164424063416e-15,18.53659054881302Z" fill="#1f77b4" stroke="none"/></g><g transform="translate(304.7414140384368,131.64711223840106)" id="2005-10-30T00:00:00Z"><path id="p_453.9251168256509" d="M-3.4051164424063416e-15,18.53659054881302A18.53659054881302,18.53659054881302,0,1,1,3.4051164424063416e-15,-18.53659054881302A18.53659054881302,18.53659054881302,0,1,1,-3.4051164424063416e-15,18.53659054881302Z" fill="#1f77b4" stroke="none"/></g><g transform="translate(228.3396010310048,260.2865345939557)" id="1964-01-01T00:00:00Z"><path id="p_506.16272617377354" d="M-3.4051164424063416e-15,18.53659054881302A18.53659054881302,18.53659054881302,0,1,1,3.4051164424063416e-15,-18.53659054881302A18.53659054881302,18.53659054881302,0,1,1,-3.4051164424063416e-15,18.53659054881302Z" fill="#1f77b4" stroke="none"/></g><g transform="translate(380.0352851389782,97.75353848069153)" id="1952-09-27T00:00:00Z"><path id="p_495.3254141684828" d="M-3.4051164424063416e-15,18.53659054881302A18.53659054881302,18.53659054881302,0,1,1,3.4051164424063416e-15,-18.53659054881302A18.53659054881302,18.53659054881302,0,1,1,-3.4051164424063416e-15,18.53659054881302Z" fill="#1f77b4" stroke="none"/></g><g transform="translate(423.1234268583262,104.2728093547623)" id="1957-01-01T00:00:00Z"><path id="p_544.9328267619015" d="M-3.4051164424063416e-15,18.53659054881302A18.53659054881302,18.53659054881302,0,1,1,3.4051164424063416e-15,-18.53659054881302A18.53659054881302,18.53659054881302,0,1,1,-3.4051164424063416e-15,18.53659054881302Z" fill="#1f77b4" stroke="none"/></g><g transform="translate(195.67423956835322,281.60749249645625)" id="1985-03-15T00:00:00Z"><path id="p_494.8183226136225" d="M-3.4051164424063416e-15,18.53659054881302A18.53659054881302,18.53659054881302,0,1,1,3.4051164424063416e-15,-18.53659054881302A18.53659054881302,18.53659054881302,0,1,1,-3.4051164424063416e-15,18.53659054881302Z" fill="#1f77b4" stroke="none"/></g><g transform="translate(345.4442242446461,448.74945616241706)" id="1912-08-20T00:00:00Z"><path id="p_811.7302709558761" d="M-3.4051164424063416e-15,18.53659054881302A18.53659054881302,18.53659054881302,0,1,1,3.4051164424063416e-15,-18.53659054881302A18.53659054881302,18.53659054881302,0,1,1,-3.4051164424063416e-15,18.53659054881302Z" fill="#1f77b4" stroke="none"/></g><g transform="translate(272.6948017533176,403.2875151802033)" id="1903-01-14T00:00:00Z"><path id="p_693.5189074823339" d="M-3.4051164424063416e-15,18.53659054881302A18.53659054881302,18.53659054881302,0,1,1,3.4051164424063416e-15,-18.53659054881302A18.53659054881302,18.53659054881302,0,1,1,-3.4051164424063416e-15,18.53659054881302Z" fill="#1f77b4" stroke="none"/></g><g transform="translate(487.50250972503073,399.28541143106736)" id="1846-10-20T00:00:00Z"><path id="p_904.3245117049111" d="M-3.4051164424063416e-15,18.53659054881302A18.53659054881302,18.53659054881302,0,1,1,3.4051164424063416e-15,-18.53659054881302A18.53659054881302,18.53659054881302,0,1,1,-3.4051164424063416e-15,18.53659054881302Z" fill="#1f77b4" stroke="none"/></g><g transform="translate(326.91723544900026,99.555960340523)" id="1873-04-12T00:00:00Z"><path id="p_444.0097863383363" d="M-3.4051164424063416e-15,18.53659054881302A18.53659054881302,18.53659054881302,0,1,1,3.4051164424063416e-15,-18.53659054881302A18.53659054881302,18.53659054881302,0,1,1,-3.4051164424063416e-15,18.53659054881302Z" fill="#1f77b4" stroke="none"/></g><g transform="translate(259.3868038328293,152.4606610430669)" id="1946-06-21T00:00:00Z"><path id="p_429.38405542470923" d="M-3.4051164424063416e-15,18.53659054881302A18.53659054881302,18.53659054881302,0,1,1,3.4051164424063416e-15,-18.53659054881302A18.53659054881302,18.53659054881302,0,1,1,-3.4051164424063416e-15,18.53659054881302Z" fill="#1f77b4" stroke="none"/></g><g transform="translate(535.1120860331188,221.612013799739)" id="1914-08-04T00:00:00Z"><path id="p_774.2606903816708" d="M-3.4051164424063416e-15,18.53659054881302A18.53659054881302,18.53659054881302,0,1,1,3.4051164424063416e-15,-18.53659054881302A18.53659054881302,18.53659054881302,0,1,1,-3.4051164424063416e-15,18.53659054881302Z" fill="#1f77b4" stroke="none"/></g><g transform="translate(535.9855060921863,182.61398535256865)" id="1872-10-23T00:00:00Z"><path id="p_736.1360819935679" d="M-3.4051164424063416e-15,18.53659054881302A18.53659054881302,18.53659054881302,0,1,1,3.4051164424063416e-15,-18.53659054881302A18.53659054881302,18.53659054881302,0,1,1,-3.4051164424063416e-15,18.53659054881302Z" fill="#1f77b4" stroke="none"/></g><g transform="translate(233.42886838516958,372.49090891465903)" id="1972-05-04T00:00:00Z"><path id="p_623.4563678486417" d="M-3.4051164424063416e-15,18.53659054881302A18.53659054881302,18.53659054881302,0,1,1,3.4051164424063416e-15,-18.53659054881302A18.53659054881302,18.53659054881302,0,1,1,-3.4051164424063416e-15,18.53659054881302Z" fill="#1f77b4" stroke="none"/></g><g transform="translate(494.89086189153005,149.92462477702256)" id="1935-01-01T00:00:00Z"><path id="p_662.3520772173656" d="M-3.4051164424063416e-15,18.53659054881302A18.53659054881302,18.53659054881302,0,1,1,3.4051164424063416e-15,-18.53659054881302A18.53659054881302,18.53659054881302,0,1,1,-3.4051164424063416e-15,18.53659054881302Z" fill="#1f77b4" stroke="none"/></g><g transform="translate(555.4573854089031,324.1290516821439)" id="1621-04-12T00:00:00Z"><path id="p_897.12302763986" d="M-3.4051164424063416e-15,18.53659054881302A18.53659054881302,18.53659054881302,0,1,1,3.4051164424063416e-15,-18.53659054881302A18.53659054881302,18.53659054881302,0,1,1,-3.4051164424063416e-15,18.53659054881302Z" fill="#1f77b4" stroke="none"/></g><g transform="translate(223.60006424733146,187.23930032907924)" id="1916-03-28T00:00:00Z"><path id="p_428.37595512522375" d="M-3.4051164424063416e-15,18.53659054881302A18.53659054881302,18.53659054881302,0,1,1,3.4051164424063416e-15,-18.53659054881302A18.53659054881302,18.53659054881302,0,1,1,-3.4051164424063416e-15,18.53659054881302Z" fill="#1f77b4" stroke="none"/></g><g transform="translate(286.7938821246919,439.6581766815758)" id="1928-09-20T00:00:00Z"><path id="p_743.9886493550807" d="M-3.4051164424063416e-15,18.53659054881302A18.53659054881302,18.53659054881302,0,1,1,3.4051164424063416e-15,-18.53659054881302A18.53659054881302,18.53659054881302,0,1,1,-3.4051164424063416e-15,18.53659054881302Z" fill="#1f77b4" stroke="none"/></g><g transform="translate(475.6732956340548,115.97916510263548)" id="1934-11-12T00:00:00Z"><path id="p_609.1890512855033" d="M-3.4051164424063416e-15,18.53659054881302A18.53659054881302,18.53659054881302,0,1,1,3.4051164424063416e-15,-18.53659054881302A18.53659054881302,18.53659054881302,0,1,1,-3.4051164424063416e-15,18.53659054881302Z" fill="#1f77b4" stroke="none"/></g><g transform="translate(206.71794650474777,330.33914580746733)" id="1820-02-13T00:00:00Z"><path id="p_554.5936828610281" d="M-3.4051164424063416e-15,18.53659054881302A18.53659054881302,18.53659054881302,0,1,1,3.4051164424063416e-15,-18.53659054881302A18.53659054881302,18.53659054881302,0,1,1,-3.4051164424063416e-15,18.53659054881302Z" fill="#1f77b4" stroke="none"/></g><g transform="translate(269.5581622236985,114.80229472361026)" id="1834-01-01T00:00:00Z"><path id="p_401.8970474961218" d="M-3.4051164424063416e-15,18.53659054881302A18.53659054881302,18.53659054881302,0,1,1,3.4051164424063416e-15,-18.53659054881302A18.53659054881302,18.53659054881302,0,1,1,-3.4051164424063416e-15,18.53659054881302Z" fill="#1f77b4" stroke="none"/></g><g transform="translate(201.49939769253714,231.98083604904082)" id="1840-05-21T00:00:00Z"><path id="p_451.016824290391" d="M-3.4051164424063416e-15,18.53659054881302A18.53659054881302,18.53659054881302,0,1,1,3.4051164424063416e-15,-18.53659054881302A18.53659054881302,18.53659054881302,0,1,1,-3.4051164424063416e-15,18.53659054881302Z" fill="#1f77b4" stroke="none"/></g><g transform="translate(439.55978622231623,453.19978836282326)" id="1876-10-20T00:00:00Z"><path id="p_910.2961651339525" d="M-3.4051164424063416e-15,18.53659054881302A18.53659054881302,18.53659054881302,0,1,1,3.4051164424063416e-15,-18.53659054881302A18.53659054881302,18.53659054881302,0,1,1,-3.4051164424063416e-15,18.53659054881302Z" fill="#1f77b4" stroke="none"/></g><g transform="translate(557.869345368821,271.53301458702106)" id="1902-01-09T00:00:00Z"><path id="p_846.938950504655" d="M-3.4051164424063416e-15,18.53659054881302A18.53659054881302,18.53659054881302,0,1,1,3.4051164424063416e-15,-18.53659054881302A18.53659054881302,18.53659054881302,0,1,1,-3.4051164424063416e-15,18.53659054881302Z" fill="#1f77b4" stroke="none"/></g><g transform="translate(234.55750788891248,411.4823856529987)" id="1905-01-01T00:00:00Z"><path id="p_663.5764840907242" d="M-3.4051164424063416e-15,18.53659054881302A18.53659054881302,18.53659054881302,0,1,1,3.4051164424063416e-15,-18.53659054881302A18.53659054881302,18.53659054881302,0,1,1,-3.4051164424063416e-15,18.53659054881302Z" fill="#1f77b4" stroke="none"/></g><g transform="translate(524.3245608072554,386.4111875917856)" id="1888-01-01T00:00:00Z"><path id="p_928.272338947854" d="M-3.4051164424063416e-15,18.53659054881302A18.53659054881302,18.53659054881302,0,1,1,3.4051164424063416e-15,-18.53659054881302A18.53659054881302,18.53659054881302,0,1,1,-3.4051164424063416e-15,18.53659054881302Z" fill="#1f77b4" stroke="none"/></g><g transform="translate(220.59647822988418,148.3473017123755)" id="1941-03-04T00:00:00Z"><path id="p_386.4803704910727" d="M-3.4051164424063416e-15,18.53659054881302A18.53659054881302,18.53659054881302,0,1,1,3.4051164424063416e-15,-18.53659054881302A18.53659054881302,18.53659054881302,0,1,1,-3.4051164424063416e-15,18.53659054881302Z" fill="#1f77b4" stroke="none"/></g><g transform="translate(379.3108984521438,468.10552661819645)" id="1934-03-08T00:00:00Z"><path id="p_864.9530156191532" d="M-3.4051164424063416e-15,18.53659054881302A18.53659054881302,18.53659054881302,0,1,1,3.4051164424063416e-15,-18.53659054881302A18.53659054881302,18.53659054881302,0,1,1,-3.4051164424063416e-15,18.53659054881302Z" fill="#1f77b4" stroke="none"/></g><g transform="translate(571.725182026613,235.06899292348982)" id="1935-12-26T00:00:00Z"><path id="p_824.3307654989159" d="M-3.4051164424063416e-15,18.53659054881302A18.53659054881302,18.53659054881302,0,1,1,3.4051164424063416e-15,-18.53659054881302A18.53659054881302,18.53659054881302,0,1,1,-3.4051164424063416e-15,18.53659054881302Z" fill="#1f77b4" stroke="none"/></g><g transform="translate(194.746265582709,367.46444636203233)" id="1940-03-06T00:00:00Z"><path id="p_579.7473024935543" d="M-3.4051164424063416e-15,18.53659054881302A18.53659054881302,18.53659054881302,0,1,1,3.4051164424063416e-15,-18.53659054881302A18.53659054881302,18.53659054881302,0,1,1,-3.4051164424063416e-15,18.53659054881302Z" fill="#1f77b4" stroke="none"/></g><g transform="translate(406.4195847833403,69.02240871448845)" id="1979-11-27T00:00:00Z"><path id="p_492.9785840466418" d="M-3.4051164424063416e-15,18.53659054881302A18.53659054881302,18.53659054881302,0,1,1,3.4051164424063416e-15,-18.53659054881302A18.53659054881302,18.53659054881302,0,1,1,-3.4051164424063416e-15,18.53659054881302Z" fill="#1f77b4" stroke="none"/></g><g transform="translate(533.3975493051903,143.6921204815925)" id="1939-08-09T00:00:00Z"><path id="p_694.6262603355958" d="M-3.4051164424063416e-15,18.53659054881302A18.53659054881302,18.53659054881302,0,1,1,3.4051164424063416e-15,-18.53659054881302A18.53659054881302,18.53659054881302,0,1,1,-3.4051164424063416e-15,18.53659054881302Z" fill="#1f77b4" stroke="none"/></g><g transform="translate(185.66650856633711,196.33074899047466)" id="1960-10-18T00:00:00Z"><path id="p_399.53384810562477" d="M-3.4051164424063416e-15,18.53659054881302A18.53659054881302,18.53659054881302,0,1,1,3.4051164424063416e-15,-18.53659054881302A18.53659054881302,18.53659054881302,0,1,1,-3.4051164424063416e-15,18.53659054881302Z" fill="#1f77b4" stroke="none"/></g><g transform="translate(352.5078624367431,70.11570056347452)" id="1981-01-19T00:00:00Z"><path id="p_440.1601535490306" d="M-3.4051164424063416e-15,18.53659054881302A18.53659054881302,18.53659054881302,0,1,1,3.4051164424063416e-15,-18.53659054881302A18.53659054881302,18.53659054881302,0,1,1,-3.4051164424063416e-15,18.53659054881302Z" fill="#1f77b4" stroke="none"/></g><g transform="translate(171.97989390537694,312.59437793157684)" id="1967-07-24T00:00:00Z"><path id="p_502.11086238576684" d="M-3.4051164424063416e-15,18.53659054881302A18.53659054881302,18.53659054881302,0,1,1,3.4051164424063416e-15,-18.53659054881302A18.53659054881302,18.53659054881302,0,1,1,-3.4051164424063416e-15,18.53659054881302Z" fill="#1f77b4" stroke="none"/></g><g transform="translate(168.83403622988547,253.30179395154136)" id="1925-09-13T00:00:00Z"><path id="p_439.6724207302399" d="M-3.4051164424063416e-15,18.53659054881302A18.53659054881302,18.53659054881302,0,1,1,3.4051164424063416e-15,-18.53659054881302A18.53659054881302,18.53659054881302,0,1,1,-3.4051164424063416e-15,18.53659054881302Z" fill="#1f77b4" stroke="none"/></g><g transform="translate(455.53677220575867,82.57064059783923)" id="1918-08-26T00:00:00Z"><path id="p_555.6440033524109" d="M-3.4051164424063416e-15,18.53659054881302A18.53659054881302,18.53659054881302,0,1,1,3.4051164424063416e-15,-18.53659054881302A18.53659054881302,18.53659054881302,0,1,1,-3.4051164424063416e-15,18.53659054881302Z" fill="#1f77b4" stroke="none"/></g><g transform="translate(484.77531554043026,438.1977680449422)" id="1968-08-21T00:00:00Z"><path id="p_940.5096741341855" d="M-3.4051164424063416e-15,18.53659054881302A18.53659054881302,18.53659054881302,0,1,1,3.4051164424063416e-15,-18.53659054881302A18.53659054881302,18.53659054881302,0,1,1,-3.4051164424063416e-15,18.53659054881302Z" fill="#1f77b4" stroke="none"/></g><g transform="translate(312.24093461004543,469.2226250135428)" id="1913-06-04T00:00:00Z"><path id="p_799.0001501724013" d="M-3.4051164424063416e-15,18.53659054881302A18.53659054881302,18.53659054881302,0,1,1,3.4051164424063416e-15,-18.53659054881302A18.53659054881302,18.53659054881302,0,1,1,-3.4051164424063416e-15,18.53659054881302Z" fill="#1f77b4" stroke="none"/></g><g transform="translate(585.4180191850153,299.149670002455)" id="1920-01-01T00:00:00Z"><path id="p_902.1042797362833" d="M-3.4051164424063416e-15,18.53659054881302A18.53659054881302,18.53659054881302,0,1,1,3.4051164424063416e-15,-18.53659054881302A18.53659054881302,18.53659054881302,0,1,1,-3.4051164424063416e-15,18.53659054881302Z" fill="#1f77b4" stroke="none"/></g><g transform="translate(291.73398363426196,82.71114282573217)" id="1920-08-07T00:00:00Z"><path id="p_391.98171700880715" d="M-3.4051164424063416e-15,18.53659054881302A18.53659054881302,18.53659054881302,0,1,1,3.4051164424063416e-15,-18.53659054881302A18.53659054881302,18.53659054881302,0,1,1,-3.4051164424063416e-15,18.53659054881302Z" fill="#1f77b4" stroke="none"/></g><g transform="translate(572.5986020856806,196.0709644763195)" id="1953-05-29T00:00:00Z"><path id="p_786.206157110813" d="M-3.4051164424063416e-15,18.53659054881302A18.53659054881302,18.53659054881302,0,1,1,3.4051164424063416e-15,-18.53659054881302A18.53659054881302,18.53659054881302,0,1,1,-3.4051164424063416e-15,18.53659054881302Z" fill="#1f77b4" stroke="none"/></g><g transform="translate(558.0207466431506,366.7598226142911)" id="1968-05-15T00:00:00Z"><path id="p_942.3171598062547" d="M-3.4051164424063416e-15,18.53659054881302A18.53659054881302,18.53659054881302,0,1,1,3.4051164424063416e-15,-18.53659054881302A18.53659054881302,18.53659054881302,0,1,1,-3.4051164424063416e-15,18.53659054881302Z" fill="#1f77b4" stroke="none"/></g><g transform="translate(589.3240596164007,343.4851221379233)" id="1956-02-17T00:00:00Z"><path id="p_950.3457723031371" d="M-3.4051164424063416e-15,18.53659054881302A18.53659054881302,18.53659054881302,0,1,1,3.4051164424063416e-15,-18.53659054881302A18.53659054881302,18.53659054881302,0,1,1,-3.4051164424063416e-15,18.53659054881302Z" fill="#1f77b4" stroke="none"/></g><g transform="translate(471.8952784787511,475.01778611467785)" id="1954-08-30T00:00:00Z"><path id="p_964.449655142242" d="M-3.4051164424063416e-15,18.53659054881302A18.53659054881302,18.53659054881302,0,1,1,3.4051164424063416e-15,-18.53659054881302A18.53659054881302,18.53659054881302,0,1,1,-3.4051164424063416e-15,18.53659054881302Z" fill="#1f77b4" stroke="none"/></g><g transform="translate(248.65658826028672,447.8530471543712)" id="1948-10-13T00:00:00Z"><path id="p_714.046225963471" d="M-3.4051164424063416e-15,18.53659054881302A18.53659054881302,18.53659054881302,0,1,1,3.4051164424063416e-15,-18.53659054881302A18.53659054881302,18.53659054881302,0,1,1,-3.4051164424063416e-15,18.53659054881302Z" fill="#1f77b4" stroke="none"/></g><g transform="translate(521.5973666226549,425.3235442056605)" id="1944-05-14T00:00:00Z"><path id="p_964.4575013771284" d="M-3.4051164424063416e-15,18.53659054881302A18.53659054881302,18.53659054881302,0,1,1,3.4051164424063416e-15,-18.53659054881302A18.53659054881302,18.53659054881302,0,1,1,-3.4051164424063416e-15,18.53659054881302Z" fill="#1f77b4" stroke="none"/></g><g transform="translate(415.1114095953701,483.5952808851181)" id="1946-12-16T00:00:00Z"><path id="p_916.2432810293012" d="M-3.4051164424063416e-15,18.53659054881302A18.53659054881302,18.53659054881302,0,1,1,3.4051164424063416e-15,-18.53659054881302A18.53659054881302,18.53659054881302,0,1,1,-3.4051164424063416e-15,18.53659054881302Z" fill="#1f77b4" stroke="none"/></g><g transform="translate(514.179983047715,109.74666080720544)" id="1966-05-28T00:00:00Z"><path id="p_641.4632344037335" d="M-3.4051164424063416e-15,18.53659054881302A18.53659054881302,18.53659054881302,0,1,1,3.4051164424063416e-15,-18.53659054881302A18.53659054881302,18.53659054881302,0,1,1,-3.4051164424063416e-15,18.53659054881302Z" fill="#1f77b4" stroke="none"/></g><g transform="translate(230.76783662075334,110.68893539291889)" id="1931-09-17T00:00:00Z"><path id="p_358.99336256248523" d="M-3.4051164424063416e-15,18.53659054881302A18.53659054881302,18.53659054881302,0,1,1,3.4051164424063416e-15,-18.53659054881302A18.53659054881302,18.53659054881302,0,1,1,-3.4051164424063416e-15,18.53659054881302Z" fill="#1f77b4" stroke="none"/></g><g transform="translate(195.8749050864519,406.45592310037193)" id="1951-11-30T00:00:00Z"><path id="p_619.8674187356369" d="M-3.4051164424063416e-15,18.53659054881302A18.53659054881302,18.53659054881302,0,1,1,3.4051164424063416e-15,-18.53659054881302A18.53659054881302,18.53659054881302,0,1,1,-3.4051164424063416e-15,18.53659054881302Z" fill="#1f77b4" stroke="none"/></g><g transform="translate(346.1076088175431,488.57869546932227)" id="1953-10-01T00:00:00Z"><path id="p_852.2228948356784" d="M-3.4051164424063416e-15,18.53659054881302A18.53659054881302,18.53659054881302,0,1,1,3.4051164424063416e-15,-18.53659054881302A18.53659054881302,18.53659054881302,0,1,1,-3.4051164424063416e-15,18.53659054881302Z" fill="#1f77b4" stroke="none"/></g><g transform="translate(182.66292254888978,157.43875037377097)" id="1950-10-25T00:00:00Z"><path id="p_357.6382634714738" d="M-3.4051164424063416e-15,18.53659054881302A18.53659054881302,18.53659054881302,0,1,1,3.4051164424063416e-15,-18.53659054881302A18.53659054881302,18.53659054881302,0,1,1,-3.4051164424063416e-15,18.53659054881302Z" fill="#1f77b4" stroke="none"/></g><g transform="translate(378.8921620811052,41.38457079727144)" id="1940-04-01T00:00:00Z"><path id="p_437.81332342718963" d="M-3.4051164424063416e-15,18.53659054881302A18.53659054881302,18.53659054881302,0,1,1,3.4051164424063416e-15,-18.53659054881302A18.53659054881302,18.53659054881302,0,1,1,-3.4051164424063416e-15,18.53659054881302Z" fill="#1f77b4" stroke="none"/></g><g transform="translate(599.2738558428073,262.6856483389238)" id="1945-04-15T00:00:00Z"><path id="p_879.4960947305441" d="M-3.4051164424063416e-15,18.53659054881302A18.53659054881302,18.53659054881302,0,1,1,3.4051164424063416e-15,-18.53659054881302A18.53659054881302,18.53659054881302,0,1,1,-3.4051164424063416e-15,18.53659054881302Z" fill="#1f77b4" stroke="none"/></g><g transform="translate(160.0082129833382,349.7196784861418)" id="1945-07-13T00:00:00Z"><path id="p_527.264482018293" d="M-3.4051164424063416e-15,18.53659054881302A18.53659054881302,18.53659054881302,0,1,1,3.4051164424063416e-15,-18.53659054881302A18.53659054881302,18.53659054881302,0,1,1,-3.4051164424063416e-15,18.53659054881302Z" fill="#1f77b4" stroke="none"/></g><g transform="translate(438.83293013077275,47.32023995756538)" id="1961-07-13T00:00:00Z"><path id="p_503.68976063715115" d="M-3.4051164424063416e-15,18.53659054881302A18.53659054881302,18.53659054881302,0,1,1,3.4051164424063416e-15,-18.53659054881302A18.53659054881302,18.53659054881302,0,1,1,-3.4051164424063416e-15,18.53659054881302Z" fill="#1f77b4" stroke="none"/></g><g transform="translate(153.00114710368544,217.65170689297523)" id="1939-07-01T00:00:00Z"><path id="p_388.1894445454737" d="M-3.4051164424063416e-15,18.53659054881302A18.53659054881302,18.53659054881302,0,1,1,3.4051164424063416e-15,-18.53659054881302A18.53659054881302,18.53659054881302,0,1,1,-3.4051164424063416e-15,18.53659054881302Z" fill="#1f77b4" stroke="none"/></g><g transform="translate(317.3246106220048,53.270883048683686)" id="1950-06-02T00:00:00Z"><path id="p_388.1320842195015" d="M-3.4051164424063416e-15,18.53659054881302A18.53659054881302,18.53659054881302,0,1,1,3.4051164424063416e-15,-18.53659054881302A18.53659054881302,18.53659054881302,0,1,1,-3.4051164424063416e-15,18.53659054881302Z" fill="#1f77b4" stroke="none"/></g><g transform="translate(145.13969056690925,284.28867938666195)" id="1950-11-28T00:00:00Z"><path id="p_446.9649605023842" d="M-3.4051164424063416e-15,18.53659054881302A18.53659054881302,18.53659054881302,0,1,1,3.4051164424063416e-15,-18.53659054881302A18.53659054881302,18.53659054881302,0,1,1,-3.4051164424063416e-15,18.53659054881302Z" fill="#1f77b4" stroke="none"/></g><g transform="translate(570.0106452986845,157.1490996053433)" id="1857-12-29T00:00:00Z"><path id="p_744.6963354528408" d="M-3.4051164424063416e-15,18.53659054881302A18.53659054881302,18.53659054881302,0,1,1,3.4051164424063416e-15,-18.53659054881302A18.53659054881302,18.53659054881302,0,1,1,-3.4051164424063416e-15,18.53659054881302Z" fill="#1f77b4" stroke="none"/></g><g transform="translate(558.191235014753,405.76725804756506)" id="1983-06-23T00:00:00Z"><path id="p_981.4950836111311" d="M-3.4051164424063416e-15,18.53659054881302A18.53659054881302,18.53659054881302,0,1,1,3.4051164424063416e-15,-18.53659054881302A18.53659054881302,18.53659054881302,0,1,1,-3.4051164424063416e-15,18.53659054881302Z" fill="#1f77b4" stroke="none"/></g><g transform="translate(274.1036407456403,477.4174954863382)" id="1943-10-28T00:00:00Z"><path id="p_769.0577267807915" d="M-3.4051164424063416e-15,18.53659054881302A18.53659054881302,18.53659054881302,0,1,1,3.4051164424063416e-15,-18.53659054881302A18.53659054881302,18.53659054881302,0,1,1,-3.4051164424063416e-15,18.53659054881302Z" fill="#1f77b4" stroke="none"/></g><g transform="translate(494.04345961941885,76.3381363024092)" id="1943-12-16T00:00:00Z"><path id="p_587.9181864706411" d="M-3.4051164424063416e-15,18.53659054881302A18.53659054881302,18.53659054881302,0,1,1,3.4051164424063416e-15,-18.53659054881302A18.53659054881302,18.53659054881302,0,1,1,-3.4051164424063416e-15,18.53659054881302Z" fill="#1f77b4" stroke="none"/></g><g transform="translate(555.4640408301526,444.6796146614399)" id="1939-05-03T00:00:00Z"><path id="p_1017.6802460404056" d="M-3.4051164424063416e-15,18.53659054881302A18.53659054881302,18.53659054881302,0,1,1,3.4051164424063416e-15,-18.53659054881302A18.53659054881302,18.53659054881302,0,1,1,-3.4051164424063416e-15,18.53659054881302Z" fill="#1f77b4" stroke="none"/></g><g transform="translate(619.284693392513,318.5057404582345)" id="1943-06-20T00:00:00Z"><path id="p_955.3270243995605" d="M-3.4051164424063416e-15,18.53659054881302A18.53659054881302,18.53659054881302,0,1,1,3.4051164424063416e-15,-18.53659054881302A18.53659054881302,18.53659054881302,0,1,1,-3.4051164424063416e-15,18.53659054881302Z" fill="#1f77b4" stroke="none"/></g><g transform="translate(252.9436580313168,78.59778349504083)" id="1925-01-07T00:00:00Z"><path id="p_349.07803207517065" d="M-3.4051164424063416e-15,18.53659054881302A18.53659054881302,18.53659054881302,0,1,1,3.4051164424063416e-15,-18.53659054881302A18.53659054881302,18.53659054881302,0,1,1,-3.4051164424063416e-15,18.53659054881302Z" fill="#1f77b4" stroke="none"/></g><g transform="translate(447.44690185180497,505.4132786369727)" id="1936-07-11T00:00:00Z"><path id="p_970.3967710375906" d="M-3.4051164424063416e-15,18.53659054881302A18.53659054881302,18.53659054881302,0,1,1,3.4051164424063416e-15,-18.53659054881302A18.53659054881302,18.53659054881302,0,1,1,-3.4051164424063416e-15,18.53659054881302Z" fill="#1f77b4" stroke="none"/></g><g transform="translate(514.3357459803678,463.64948778195617)" id="1987-09-28T00:00:00Z"><path id="p_995.521824311137" d="M-3.4051164424063416e-15,18.53659054881302A18.53659054881302,18.53659054881302,0,1,1,3.4051164424063416e-15,-18.53659054881302A18.53659054881302,18.53659054881302,0,1,1,-3.4051164424063416e-15,18.53659054881302Z" fill="#1f77b4" stroke="none"/></g><g transform="translate(383.79663333022444,506.8545558701592)" id="1954-08-17T00:00:00Z"><path id="p_908.1877797491967" d="M-3.4051164424063416e-15,18.53659054881302A18.53659054881302,18.53659054881302,0,1,1,3.4051164424063416e-15,-18.53659054881302A18.53659054881302,18.53659054881302,0,1,1,-3.4051164424063416e-15,18.53659054881302Z" fill="#1f77b4" stroke="none"/></g><g transform="translate(350.59334369562373,527.327724721285)" id="1935-11-13T00:00:00Z"><path id="p_895.4576589657217" d="M-3.4051164424063416e-15,18.53659054881302A18.53659054881302,18.53659054881302,0,1,1,3.4051164424063416e-15,-18.53659054881302A18.53659054881302,18.53659054881302,0,1,1,-3.4051164424063416e-15,18.53659054881302Z" fill="#1f77b4" stroke="none"/></g><g transform="translate(605.9351753889044,216.32638265923202)" id="1944-06-06T00:00:00Z"><path id="p_839.7981485969495" d="M-3.4051164424063416e-15,18.53659054881302A18.53659054881302,18.53659054881302,0,1,1,3.4051164424063416e-15,-18.53659054881302A18.53659054881302,18.53659054881302,0,1,1,-3.4051164424063416e-15,18.53659054881302Z" fill="#1f77b4" stroke="none"/></g><g transform="translate(209.97398545782616,442.82658460174446)" id="1930-01-01T00:00:00Z"><path id="p_670.3371606083837" d="M-3.4051164424063416e-15,18.53659054881302A18.53659054881302,18.53659054881302,0,1,1,3.4051164424063416e-15,-18.53659054881302A18.53659054881302,18.53659054881302,0,1,1,-3.4051164424063416e-15,18.53659054881302Z" fill="#1f77b4" stroke="none"/></g><g transform="translate(192.834280939759,119.78038405431434)" id="1969-01-01T00:00:00Z"><path id="p_330.15125554288636" d="M-3.4051164424063416e-15,18.53659054881302A18.53659054881302,18.53659054881302,0,1,1,3.4051164424063416e-15,-18.53659054881302A18.53659054881302,18.53659054881302,0,1,1,-3.4051164424063416e-15,18.53659054881302Z" fill="#1f77b4" stroke="none"/></g><g transform="translate(553.186396597612,110.07649006651476)" id="1986-01-01T00:00:00Z"><path id="p_680.7994772129398" d="M-3.4051164424063416e-15,18.53659054881302A18.53659054881302,18.53659054881302,0,1,1,3.4051164424063416e-15,-18.53659054881302A18.53659054881302,18.53659054881302,0,1,1,-3.4051164424063416e-15,18.53659054881302Z" fill="#1f77b4" stroke="none"/></g><g transform="translate(501.4557089186886,500.4695058516918)" id="1925-01-01T00:00:00Z"><path id="p_1019.4618053191933" d="M-3.4051164424063416e-15,18.53659054881302A18.53659054881302,18.53659054881302,0,1,1,3.4051164424063416e-15,-18.53659054881302A18.53659054881302,18.53659054881302,0,1,1,-3.4051164424063416e-15,18.53659054881302Z" fill="#1f77b4" stroke="none"/></g><g transform="translate(312.4114229816479,508.23006044681676)" id="1988-04-01T00:00:00Z"><path id="p_838.1780739772777" d="M-3.4051164424063416e-15,18.53659054881302A18.53659054881302,18.53659054881302,0,1,1,3.4051164424063416e-15,-18.53659054881302A18.53659054881302,18.53659054881302,0,1,1,-3.4051164424063416e-15,18.53659054881302Z" fill="#1f77b4" stroke="none"/></g><g transform="translate(633.4838492050989,243.943038074666)" id="1976-07-02T00:00:00Z"><path id="p_894.9634778285779" d="M-3.4051164424063416e-15,18.53659054881302A18.53659054881302,18.53659054881302,0,1,1,3.4051164424063416e-15,-18.53659054881302A18.53659054881302,18.53659054881302,0,1,1,-3.4051164424063416e-15,18.53659054881302Z" fill="#1f77b4" stroke="none"/></g><g transform="translate(161.1368524870811,388.71115522448144)" id="1923-10-05T00:00:00Z"><path id="p_567.3845982603756" d="M-3.4051164424063416e-15,18.53659054881302A18.53659054881302,18.53659054881302,0,1,1,3.4051164424063416e-15,-18.53659054881302A18.53659054881302,18.53659054881302,0,1,1,-3.4051164424063416e-15,18.53659054881302Z" fill="#1f77b4" stroke="none"/></g><g transform="translate(593.828885007784,382.23193663355687)" id="1988-09-08T00:00:00Z"><path id="p_993.5974121901539" d="M-3.4051164424063416e-15,18.53659054881302A18.53659054881302,18.53659054881302,0,1,1,3.4051164424063416e-15,-18.53659054881302A18.53659054881302,18.53659054881302,0,1,1,-3.4051164424063416e-15,18.53659054881302Z" fill="#1f77b4" stroke="none"/></g><g transform="translate(593.9993733793864,421.2393720668308)" id="1971-02-13T00:00:00Z"><path id="p_1032.7753359950302" d="M-3.4051164424063416e-15,18.53659054881302A18.53659054881302,18.53659054881302,0,1,1,3.4051164424063416e-15,-18.53659054881302A18.53659054881302,18.53659054881302,0,1,1,-3.4051164424063416e-15,18.53659054881302Z" fill="#1f77b4" stroke="none"/></g><g transform="translate(149.9975610862381,178.7597082762715)" id="1970-01-01T00:00:00Z"><path id="p_346.29385991132267" d="M-3.4051164424063416e-15,18.53659054881302A18.53659054881302,18.53659054881302,0,1,1,3.4051164424063416e-15,-18.53659054881302A18.53659054881302,18.53659054881302,0,1,1,-3.4051164424063416e-15,18.53659054881302Z" fill="#1f77b4" stroke="none"/></g><g transform="translate(589.7994925911063,123.53346919026558)" id="1990-01-01T00:00:00Z"><path id="p_730.8695523301849" d="M-3.4051164424063416e-15,18.53659054881302A18.53659054881302,18.53659054881302,0,1,1,3.4051164424063416e-15,-18.53659054881302A18.53659054881302,18.53659054881302,0,1,1,-3.4051164424063416e-15,18.53659054881302Z" fill="#1f77b4" stroke="none"/></g><g transform="translate(274.2741291172427,516.4249309196123)" id="1915-06-05T00:00:00Z"><path id="p_808.2356505856679" d="M-3.4051164424063416e-15,18.53659054881302A18.53659054881302,18.53659054881302,0,1,1,3.4051164424063416e-15,-18.53659054881302A18.53659054881302,18.53659054881302,0,1,1,-3.4051164424063416e-15,18.53659054881302Z" fill="#1f77b4" stroke="none"/></g><g transform="translate(343.7089102663669,24.539753282480604)" id="1930-07-13T00:00:00Z"><path id="p_385.7852540976605" d="M-3.4051164424063416e-15,18.53659054881302A18.53659054881302,18.53659054881302,0,1,1,3.4051164424063416e-15,-18.53659054881302A18.53659054881302,18.53659054881302,0,1,1,-3.4051164424063416e-15,18.53659054881302Z" fill="#1f77b4" stroke="none"/></g><g transform="translate(635.2420699756582,282.9112012991222)" id="1857-01-15T00:00:00Z"><path id="p_935.6898618235933" d="M-3.4051164424063416e-15,18.53659054881302A18.53659054881302,18.53659054881302,0,1,1,3.4051164424063416e-15,-18.53659054881302A18.53659054881302,18.53659054881302,0,1,1,-3.4051164424063416e-15,18.53659054881302Z" fill="#1f77b4" stroke="none"/></g><g transform="translate(133.16800964487052,321.41397994122696)" id="1885-01-01T00:00:00Z"><path id="p_472.11858013491053" d="M-3.4051164424063416e-15,18.53659054881302A18.53659054881302,18.53659054881302,0,1,1,3.4051164424063416e-15,-18.53659054881302A18.53659054881302,18.53659054881302,0,1,1,-3.4051164424063416e-15,18.53659054881302Z" fill="#1f77b4" stroke="none"/></g></g><g id="labels"><g transform="translate(342.53057874510034,273.81580741912336)"><text text-anchor="middle" dominant-baseline="text-before-edge" transform="translate(0,-5.6666669845581055)"><tspan x="0" y="0" dy="0" style="font-family: Arial, sans-serif; font-size: 10px; fill: black; font-weight: bold;">http://www.wikidata.org/entity/Q94758037,http://www.wikidata.org/entity/Q95487881,http://www.wikidata.org/entity/Q102121266,http://www.wikidata.org/entity/Q110112186,http://www.wikidata.org/entity/Q110875844,http://www.wikidata.org/entity/Q111242086,http://www.wikidata.org/entity/Q111471315,http://www.wikidata.org/entity/Q111474365,http://www.wikidata.org/entity/Q111496243,http://www.wikidata.org/entity/Q111976678,http://www.wikidata.org/entity/Q112259721,http://www.wikidata.org/entity/Q112517338,http://www.wikidata.org/entity/Q112655763,http://www.wikidata.org/entity/Q114055400,http://www.wikidata.org/entity/Q120044397,http://www.wikidata.org/entity/Q120597562,http://www.wikidata.org/entity/Q120600674,http://www.wikidata.org/entity/Q121360162,http://www.wikidata.org/entity/Q122573935,http://www.wikidata.org/entity/Q123026948,http://www.wikidata.org/entity/Q123107686,http://www.wikidata.org/entity/Q123521650,http://www.wikidata.org/entity/Q12987391,http://www.wikidata.org/entity/Q16311774,http://www.wikidata.org/entity/Q16312824,http://www.wikidata.org/entity/Q20852628</tspan></text></g><g transform="translate(471.089959206137,273.81580741912336)"><text text-anchor="middle" dominant-baseline="text-before-edge" transform="translate(0,-5.6666669845581055)"><tspan x="0" y="0" dy="0" style="font-family: Arial, sans-serif; font-size: 10px; fill: black; font-weight: bold;">http://www.wikidata.org/entity/Q115272731,http://www.wikidata.org/entity/Q9376734,http://www.wikidata.org/entity/Q12982658</tspan></text></g><g transform="translate(451.21246422599813,330.69838384423076)"><text text-anchor="middle" dominant-baseline="text-before-edge" transform="translate(0,-5.6666669845581055)"><tspan x="0" y="0" dy="0" style="font-family: Arial, sans-serif; font-size: 10px; fill: black; font-weight: bold;">http://www.wikidata.org/entity/Q105086421,http://www.wikidata.org/entity/Q17015784</tspan></text></g><g transform="translate(451.21246422599813,216.933230994016)"><text text-anchor="middle" dominant-baseline="text-before-edge" transform="translate(0,-5.6666669845581055)"><tspan x="0" y="0" dy="0" style="font-family: Arial, sans-serif; font-size: 10px; fill: black; font-weight: bold;">http://www.wikidata.org/entity/Q123518038,http://www.wikidata.org/entity/Q16647747</tspan></text></g><g transform="translate(415.9568216736518,175.55102948807365)"><text text-anchor="middle" dominant-baseline="text-before-edge" transform="translate(0,-5.6666669845581055)"><tspan x="0" y="0" dy="0" style="font-family: Arial, sans-serif; font-size: 10px; fill: black; font-weight: bold;">http://www.wikidata.org/entity/Q11769505,http://www.wikidata.org/entity/Q17812521</tspan></text></g><g transform="translate(416.4688237691667,361.882580592892)"><text text-anchor="middle" dominant-baseline="text-before-edge" transform="translate(0,-5.6666669845581055)"><tspan x="0" y="0" dy="0" style="font-family: Arial, sans-serif; font-size: 10px; fill: black; font-weight: bold;">http://www.wikidata.org/entity/Q71190445</tspan></text></g><g transform="translate(371.1485002262213,162.44419889801384)"><text text-anchor="middle" dominant-baseline="text-before-edge" transform="translate(0,-5.6666669845581055)"><tspan x="0" y="0" dy="0" style="font-family: Arial, sans-serif; font-size: 10px; fill: black; font-weight: bold;">http://www.wikidata.org/entity/Q92271928</tspan></text></g><g transform="translate(382.7726379332714,381.53394557038655)"><text text-anchor="middle" dominant-baseline="text-before-edge" transform="translate(0,-5.6666669845581055)"><tspan x="0" y="0" dy="0" style="font-family: Arial, sans-serif; font-size: 10px; fill: black; font-weight: bold;">http://www.wikidata.org/entity/Q92742244</tspan></text></g><g transform="translate(496.6053986194586,227.84451809516906)"><text text-anchor="middle" dominant-baseline="text-before-edge" transform="translate(0,-5.6666669845581055)"><tspan x="0" y="0" dy="0" style="font-family: Arial, sans-serif; font-size: 10px; fill: black; font-weight: bold;">http://www.wikidata.org/entity/Q94845763</tspan></text></g><g transform="translate(344.44554838623867,388.7895153081551)"><text text-anchor="middle" dominant-baseline="text-before-edge" transform="translate(0,-5.6666669845581055)"><tspan x="0" y="0" dy="0" style="font-family: Arial, sans-serif; font-size: 10px; fill: black; font-weight: bold;">http://www.wikidata.org/entity/Q99522704</tspan></text></g><g transform="translate(496.6053986194586,319.7870967430777)"><text text-anchor="middle" dominant-baseline="text-before-edge" transform="translate(0,-5.6666669845581055)"><tspan x="0" y="0" dy="0" style="font-family: Arial, sans-serif; font-size: 10px; fill: black; font-weight: bold;">http://www.wikidata.org/entity/Q102044988</tspan></text></g><g transform="translate(332.26883674067193,159.28495015561805)"><text text-anchor="middle" dominant-baseline="text-before-edge" transform="translate(0,-5.6666669845581055)"><tspan x="0" y="0" dy="0" style="font-family: Arial, sans-serif; font-size: 10px; fill: black; font-weight: bold;">http://www.wikidata.org/entity/Q106376074</tspan></text></g><g transform="translate(452.269334912393,377.37233485981363)"><text text-anchor="middle" dominant-baseline="text-before-edge" transform="translate(0,-5.6666669845581055)"><tspan x="0" y="0" dy="0" style="font-family: Arial, sans-serif; font-size: 10px; fill: black; font-weight: bold;">http://www.wikidata.org/entity/Q107056752</tspan></text></g><g transform="translate(462.4775165440975,171.62679353394554)"><text text-anchor="middle" dominant-baseline="text-before-edge" transform="translate(0,-5.6666669845581055)"><tspan x="0" y="0" dy="0" style="font-family: Arial, sans-serif; font-size: 10px; fill: black; font-weight: bold;">http://www.wikidata.org/entity/Q108311874</tspan></text></g><g transform="translate(305.8980913879183,382.81434632907747)"><text text-anchor="middle" dominant-baseline="text-before-edge" transform="translate(0,-5.6666669845581055)"><tspan x="0" y="0" dy="0" style="font-family: Arial, sans-serif; font-size: 10px; fill: black; font-weight: bold;">http://www.wikidata.org/entity/Q108654001</tspan></text></g><g transform="translate(416.6393121407691,400.890016026166)"><text text-anchor="middle" dominant-baseline="text-before-edge" transform="translate(0,-5.6666669845581055)"><tspan x="0" y="0" dy="0" style="font-family: Arial, sans-serif; font-size: 10px; fill: black; font-weight: bold;">http://www.wikidata.org/entity/Q108760253</tspan></text></g><g transform="translate(294.57005564756764,169.30547855785767)"><text text-anchor="middle" dominant-baseline="text-before-edge" transform="translate(0,-5.6666669845581055)"><tspan x="0" y="0" dy="0" style="font-family: Arial, sans-serif; font-size: 10px; fill: black; font-weight: bold;">http://www.wikidata.org/entity/Q108812954</tspan></text></g><g transform="translate(396.7391272139641,133.00393912096538)"><text text-anchor="middle" dominant-baseline="text-before-edge" transform="translate(0,-5.6666669845581055)"><tspan x="0" y="0" dy="0" style="font-family: Arial, sans-serif; font-size: 10px; fill: black; font-weight: bold;">http://www.wikidata.org/entity/Q109577388</tspan></text></g><g transform="translate(271.56616224957475,364.2960384418637)"><text text-anchor="middle" dominant-baseline="text-before-edge" transform="translate(0,-5.6666669845581055)"><tspan x="0" y="0" dy="0" style="font-family: Arial, sans-serif; font-size: 10px; fill: black; font-weight: bold;">http://www.wikidata.org/entity/Q111235181</tspan></text></g><g transform="translate(369.8926008715922,418.3539636401222)"><text text-anchor="middle" dominant-baseline="text-before-edge" transform="translate(0,-5.6666669845581055)"><tspan x="0" y="0" dy="0" style="font-family: Arial, sans-serif; font-size: 10px; fill: black; font-weight: bold;">http://www.wikidata.org/entity/Q111366445</tspan></text></g><g transform="translate(452.43982328399545,416.37977029308763)"><text text-anchor="middle" dominant-baseline="text-before-edge" transform="translate(0,-5.6666669845581055)"><tspan x="0" y="0" dy="0" style="font-family: Arial, sans-serif; font-size: 10px; fill: black; font-weight: bold;">http://www.wikidata.org/entity/Q111436041</tspan></text></g><g transform="translate(262.3903898502766,191.3526596597706)"><text text-anchor="middle" dominant-baseline="text-before-edge" transform="translate(0,-5.6666669845581055)"><tspan x="0" y="0" dy="0" style="font-family: Arial, sans-serif; font-size: 10px; fill: black; font-weight: bold;">http://www.wikidata.org/entity/Q111489203</tspan></text></g><g transform="translate(487.3320213534283,360.2779759977934)"><text text-anchor="middle" dominant-baseline="text-before-edge" transform="translate(0,-5.6666669845581055)"><tspan x="0" y="0" dy="0" style="font-family: Arial, sans-serif; font-size: 10px; fill: black; font-weight: bold;">http://www.wikidata.org/entity/Q111646382</tspan></text></g><g transform="translate(497.47881867852607,188.84648964799874)"><text text-anchor="middle" dominant-baseline="text-before-edge" transform="translate(0,-5.6666669845581055)"><tspan x="0" y="0" dy="0" style="font-family: Arial, sans-serif; font-size: 10px; fill: black; font-weight: bold;">http://www.wikidata.org/entity/Q111727404</tspan></text></g><g transform="translate(524.1540724356529,347.4037521585117)"><text text-anchor="middle" dominant-baseline="text-before-edge" transform="translate(0,-5.6666669845581055)"><tspan x="0" y="0" dy="0" style="font-family: Arial, sans-serif; font-size: 10px; fill: black; font-weight: bold;">http://www.wikidata.org/entity/Q112076608</tspan></text></g><g transform="translate(521.2562493753267,258.0760354632703)"><text text-anchor="middle" dominant-baseline="text-before-edge" transform="translate(0,-5.6666669845581055)"><tspan x="0" y="0" dy="0" style="font-family: Arial, sans-serif; font-size: 10px; fill: black; font-weight: bold;">http://www.wikidata.org/entity/Q112410200</tspan></text></g><g transform="translate(527.9087115927088,296.5123962667099)"><text text-anchor="middle" dominant-baseline="text-before-edge" transform="translate(0,-5.6666669845581055)"><tspan x="0" y="0" dy="0" style="font-family: Arial, sans-serif; font-size: 10px; fill: black; font-weight: bold;">http://www.wikidata.org/entity/Q112504568</tspan></text></g><g transform="translate(354.4446581512354,127.19379825773999)"><text text-anchor="middle" dominant-baseline="text-before-edge" transform="translate(0,-5.6666669845581055)"><tspan x="0" y="0" dy="0" style="font-family: Arial, sans-serif; font-size: 10px; fill: black; font-weight: bold;">http://www.wikidata.org/entity/Q112536539</tspan></text></g><g transform="translate(245.40054930720837,335.3656083600941)"><text text-anchor="middle" dominant-baseline="text-before-edge" transform="translate(0,-5.6666669845581055)"><tspan x="0" y="0" dy="0" style="font-family: Arial, sans-serif; font-size: 10px; fill: black; font-weight: bold;">http://www.wikidata.org/entity/Q112561712</tspan></text></g><g transform="translate(403.75927507908995,437.7100340959016)"><text text-anchor="middle" dominant-baseline="text-before-edge" transform="translate(0,-5.6666669845581055)"><tspan x="0" y="0" dy="0" style="font-family: Arial, sans-serif; font-size: 10px; fill: black; font-weight: bold;">http://www.wikidata.org/entity/Q112870168</tspan></text></g><g transform="translate(239.43295337353152,222.88938738764534)"><text text-anchor="middle" dominant-baseline="text-before-edge" transform="translate(0,-5.6666669845581055)"><tspan x="0" y="0" dy="0" style="font-family: Arial, sans-serif; font-size: 10px; fill: black; font-weight: bold;">http://www.wikidata.org/entity/Q113738099</tspan></text></g><g transform="translate(443.2599502866223,137.68133385955852)"><text text-anchor="middle" dominant-baseline="text-before-edge" transform="translate(0,-5.6666669845581055)"><tspan x="0" y="0" dy="0" style="font-family: Arial, sans-serif; font-size: 10px; fill: black; font-weight: bold;">http://www.wikidata.org/entity/Q114057721</tspan></text></g><g transform="translate(319.99717175929254,419.18500783045)"><text text-anchor="middle" dominant-baseline="text-before-edge" transform="translate(0,-5.6666669845581055)"><tspan x="0" y="0" dy="0" style="font-family: Arial, sans-serif; font-size: 10px; fill: black; font-weight: bold;">http://www.wikidata.org/entity/Q115362412</tspan></text></g><g transform="translate(230.412292167724,299.35226037234673)"><text text-anchor="middle" dominant-baseline="text-before-edge" transform="translate(0,-5.6666669845581055)"><tspan x="0" y="0" dy="0" style="font-family: Arial, sans-serif; font-size: 10px; fill: black; font-weight: bold;">http://www.wikidata.org/entity/Q115724910</tspan></text></g><g transform="translate(304.7414140384368,131.64711223840106)"><text text-anchor="middle" dominant-baseline="text-before-edge" transform="translate(0,-5.6666669845581055)"><tspan x="0" y="0" dy="0" style="font-family: Arial, sans-serif; font-size: 10px; fill: black; font-weight: bold;">http://www.wikidata.org/entity/Q115928124</tspan></text></g><g transform="translate(228.3396010310048,260.2865345939557)"><text text-anchor="middle" dominant-baseline="text-before-edge" transform="translate(0,-5.6666669845581055)"><tspan x="0" y="0" dy="0" style="font-family: Arial, sans-serif; font-size: 10px; fill: black; font-weight: bold;">http://www.wikidata.org/entity/Q115950025</tspan></text></g><g transform="translate(380.0352851389782,97.75353848069153)"><text text-anchor="middle" dominant-baseline="text-before-edge" transform="translate(0,-5.6666669845581055)"><tspan x="0" y="0" dy="0" style="font-family: Arial, sans-serif; font-size: 10px; fill: black; font-weight: bold;">http://www.wikidata.org/entity/Q116210255</tspan></text></g><g transform="translate(423.1234268583262,104.2728093547623)"><text text-anchor="middle" dominant-baseline="text-before-edge" transform="translate(0,-5.6666669845581055)"><tspan x="0" y="0" dy="0" style="font-family: Arial, sans-serif; font-size: 10px; fill: black; font-weight: bold;">http://www.wikidata.org/entity/Q120757407</tspan></text></g><g transform="translate(195.67423956835322,281.60749249645625)"><text text-anchor="middle" dominant-baseline="text-before-edge" transform="translate(0,-5.6666669845581055)"><tspan x="0" y="0" dy="0" style="font-family: Arial, sans-serif; font-size: 10px; fill: black; font-weight: bold;">http://www.wikidata.org/entity/Q123165043</tspan></text></g><g transform="translate(345.4442242446461,448.74945616241706)"><text text-anchor="middle" dominant-baseline="text-before-edge" transform="translate(0,-5.6666669845581055)"><tspan x="0" y="0" dy="0" style="font-family: Arial, sans-serif; font-size: 10px; fill: black; font-weight: bold;">http://www.wikidata.org/entity/Q9370809</tspan></text></g><g transform="translate(272.6948017533176,403.2875151802033)"><text text-anchor="middle" dominant-baseline="text-before-edge" transform="translate(0,-5.6666669845581055)"><tspan x="0" y="0" dy="0" style="font-family: Arial, sans-serif; font-size: 10px; fill: black; font-weight: bold;">http://www.wikidata.org/entity/Q9381791</tspan></text></g><g transform="translate(487.50250972503073,399.28541143106736)"><text text-anchor="middle" dominant-baseline="text-before-edge" transform="translate(0,-5.6666669845581055)"><tspan x="0" y="0" dy="0" style="font-family: Arial, sans-serif; font-size: 10px; fill: black; font-weight: bold;">http://www.wikidata.org/entity/Q9382147</tspan></text></g><g transform="translate(326.91723544900026,99.555960340523)"><text text-anchor="middle" dominant-baseline="text-before-edge" transform="translate(0,-5.6666669845581055)"><tspan x="0" y="0" dy="0" style="font-family: Arial, sans-serif; font-size: 10px; fill: black; font-weight: bold;">http://www.wikidata.org/entity/Q9392991</tspan></text></g><g transform="translate(259.3868038328293,152.4606610430669)"><text text-anchor="middle" dominant-baseline="text-before-edge" transform="translate(0,-5.6666669845581055)"><tspan x="0" y="0" dy="0" style="font-family: Arial, sans-serif; font-size: 10px; fill: black; font-weight: bold;">http://www.wikidata.org/entity/Q10989715</tspan></text></g><g transform="translate(535.1120860331188,221.612013799739)"><text text-anchor="middle" dominant-baseline="text-before-edge" transform="translate(0,-5.6666669845581055)"><tspan x="0" y="0" dy="0" style="font-family: Arial, sans-serif; font-size: 10px; fill: black; font-weight: bold;">http://www.wikidata.org/entity/Q11685345</tspan></text></g><g transform="translate(535.9855060921863,182.61398535256865)"><text text-anchor="middle" dominant-baseline="text-before-edge" transform="translate(0,-5.6666669845581055)"><tspan x="0" y="0" dy="0" style="font-family: Arial, sans-serif; font-size: 10px; fill: black; font-weight: bold;">http://www.wikidata.org/entity/Q11686371</tspan></text></g><g transform="translate(233.42886838516958,372.49090891465903)"><text text-anchor="middle" dominant-baseline="text-before-edge" transform="translate(0,-5.6666669845581055)"><tspan x="0" y="0" dy="0" style="font-family: Arial, sans-serif; font-size: 10px; fill: black; font-weight: bold;">http://www.wikidata.org/entity/Q11702729</tspan></text></g><g transform="translate(494.89086189153005,149.92462477702256)"><text text-anchor="middle" dominant-baseline="text-before-edge" transform="translate(0,-5.6666669845581055)"><tspan x="0" y="0" dy="0" style="font-family: Arial, sans-serif; font-size: 10px; fill: black; font-weight: bold;">http://www.wikidata.org/entity/Q11719259</tspan></text></g><g transform="translate(555.4573854089031,324.1290516821439)"><text text-anchor="middle" dominant-baseline="text-before-edge" transform="translate(0,-5.6666669845581055)"><tspan x="0" y="0" dy="0" style="font-family: Arial, sans-serif; font-size: 10px; fill: black; font-weight: bold;">http://www.wikidata.org/entity/Q11724385</tspan></text></g><g transform="translate(223.60006424733146,187.23930032907924)"><text text-anchor="middle" dominant-baseline="text-before-edge" transform="translate(0,-5.6666669845581055)"><tspan x="0" y="0" dy="0" style="font-family: Arial, sans-serif; font-size: 10px; fill: black; font-weight: bold;">http://www.wikidata.org/entity/Q11725270</tspan></text></g><g transform="translate(286.7938821246919,439.6581766815758)"><text text-anchor="middle" dominant-baseline="text-before-edge" transform="translate(0,-5.6666669845581055)"><tspan x="0" y="0" dy="0" style="font-family: Arial, sans-serif; font-size: 10px; fill: black; font-weight: bold;">http://www.wikidata.org/entity/Q11725475</tspan></text></g><g transform="translate(475.6732956340548,115.97916510263548)"><text text-anchor="middle" dominant-baseline="text-before-edge" transform="translate(0,-5.6666669845581055)"><tspan x="0" y="0" dy="0" style="font-family: Arial, sans-serif; font-size: 10px; fill: black; font-weight: bold;">http://www.wikidata.org/entity/Q11727480</tspan></text></g><g transform="translate(206.71794650474777,330.33914580746733)"><text text-anchor="middle" dominant-baseline="text-before-edge" transform="translate(0,-5.6666669845581055)"><tspan x="0" y="0" dy="0" style="font-family: Arial, sans-serif; font-size: 10px; fill: black; font-weight: bold;">http://www.wikidata.org/entity/Q11729092</tspan></text></g><g transform="translate(269.5581622236985,114.80229472361026)"><text text-anchor="middle" dominant-baseline="text-before-edge" transform="translate(0,-5.6666669845581055)"><tspan x="0" y="0" dy="0" style="font-family: Arial, sans-serif; font-size: 10px; fill: black; font-weight: bold;">http://www.wikidata.org/entity/Q11729356</tspan></text></g><g transform="translate(201.49939769253714,231.98083604904082)"><text text-anchor="middle" dominant-baseline="text-before-edge" transform="translate(0,-5.6666669845581055)"><tspan x="0" y="0" dy="0" style="font-family: Arial, sans-serif; font-size: 10px; fill: black; font-weight: bold;">http://www.wikidata.org/entity/Q11729356</tspan></text></g><g transform="translate(439.55978622231623,453.19978836282326)"><text text-anchor="middle" dominant-baseline="text-before-edge" transform="translate(0,-5.6666669845581055)"><tspan x="0" y="0" dy="0" style="font-family: Arial, sans-serif; font-size: 10px; fill: black; font-weight: bold;">http://www.wikidata.org/entity/Q11729844</tspan></text></g><g transform="translate(557.869345368821,271.53301458702106)"><text text-anchor="middle" dominant-baseline="text-before-edge" transform="translate(0,-5.6666669845581055)"><tspan x="0" y="0" dy="0" style="font-family: Arial, sans-serif; font-size: 10px; fill: black; font-weight: bold;">http://www.wikidata.org/entity/Q11730395</tspan></text></g><g transform="translate(234.55750788891248,411.4823856529987)"><text text-anchor="middle" dominant-baseline="text-before-edge" transform="translate(0,-5.6666669845581055)"><tspan x="0" y="0" dy="0" style="font-family: Arial, sans-serif; font-size: 10px; fill: black; font-weight: bold;">http://www.wikidata.org/entity/Q11730526</tspan></text></g><g transform="translate(524.3245608072554,386.4111875917856)"><text text-anchor="middle" dominant-baseline="text-before-edge" transform="translate(0,-5.6666669845581055)"><tspan x="0" y="0" dy="0" style="font-family: Arial, sans-serif; font-size: 10px; fill: black; font-weight: bold;">http://www.wikidata.org/entity/Q11736142</tspan></text></g><g transform="translate(220.59647822988418,148.3473017123755)"><text text-anchor="middle" dominant-baseline="text-before-edge" transform="translate(0,-5.6666669845581055)"><tspan x="0" y="0" dy="0" style="font-family: Arial, sans-serif; font-size: 10px; fill: black; font-weight: bold;">http://www.wikidata.org/entity/Q11737893</tspan></text></g><g transform="translate(379.3108984521438,468.10552661819645)"><text text-anchor="middle" dominant-baseline="text-before-edge" transform="translate(0,-5.6666669845581055)"><tspan x="0" y="0" dy="0" style="font-family: Arial, sans-serif; font-size: 10px; fill: black; font-weight: bold;">http://www.wikidata.org/entity/Q11738063</tspan></text></g><g transform="translate(571.725182026613,235.06899292348982)"><text text-anchor="middle" dominant-baseline="text-before-edge" transform="translate(0,-5.6666669845581055)"><tspan x="0" y="0" dy="0" style="font-family: Arial, sans-serif; font-size: 10px; fill: black; font-weight: bold;">http://www.wikidata.org/entity/Q11738193</tspan></text></g><g transform="translate(194.746265582709,367.46444636203233)"><text text-anchor="middle" dominant-baseline="text-before-edge" transform="translate(0,-5.6666669845581055)"><tspan x="0" y="0" dy="0" style="font-family: Arial, sans-serif; font-size: 10px; fill: black; font-weight: bold;">http://www.wikidata.org/entity/Q11749566</tspan></text></g><g transform="translate(406.4195847833403,69.02240871448845)"><text text-anchor="middle" dominant-baseline="text-before-edge" transform="translate(0,-5.6666669845581055)"><tspan x="0" y="0" dy="0" style="font-family: Arial, sans-serif; font-size: 10px; fill: black; font-weight: bold;">http://www.wikidata.org/entity/Q11765331</tspan></text></g><g transform="translate(533.3975493051903,143.6921204815925)"><text text-anchor="middle" dominant-baseline="text-before-edge" transform="translate(0,-5.6666669845581055)"><tspan x="0" y="0" dy="0" style="font-family: Arial, sans-serif; font-size: 10px; fill: black; font-weight: bold;">http://www.wikidata.org/entity/Q11768791</tspan></text></g><g transform="translate(185.66650856633711,196.33074899047466)"><text text-anchor="middle" dominant-baseline="text-before-edge" transform="translate(0,-5.6666669845581055)"><tspan x="0" y="0" dy="0" style="font-family: Arial, sans-serif; font-size: 10px; fill: black; font-weight: bold;">http://www.wikidata.org/entity/Q11770234</tspan></text></g><g transform="translate(352.5078624367431,70.11570056347452)"><text text-anchor="middle" dominant-baseline="text-before-edge" transform="translate(0,-5.6666669845581055)"><tspan x="0" y="0" dy="0" style="font-family: Arial, sans-serif; font-size: 10px; fill: black; font-weight: bold;">http://www.wikidata.org/entity/Q11770558</tspan></text></g><g transform="translate(171.97989390537694,312.59437793157684)"><text text-anchor="middle" dominant-baseline="text-before-edge" transform="translate(0,-5.6666669845581055)"><tspan x="0" y="0" dy="0" style="font-family: Arial, sans-serif; font-size: 10px; fill: black; font-weight: bold;">http://www.wikidata.org/entity/Q11772292</tspan></text></g><g transform="translate(168.83403622988547,253.30179395154136)"><text text-anchor="middle" dominant-baseline="text-before-edge" transform="translate(0,-5.6666669845581055)"><tspan x="0" y="0" dy="0" style="font-family: Arial, sans-serif; font-size: 10px; fill: black; font-weight: bold;">http://www.wikidata.org/entity/Q11778874</tspan></text></g><g transform="translate(455.53677220575867,82.57064059783923)"><text text-anchor="middle" dominant-baseline="text-before-edge" transform="translate(0,-5.6666669845581055)"><tspan x="0" y="0" dy="0" style="font-family: Arial, sans-serif; font-size: 10px; fill: black; font-weight: bold;">http://www.wikidata.org/entity/Q11863866</tspan></text></g><g transform="translate(484.77531554043026,438.1977680449422)"><text text-anchor="middle" dominant-baseline="text-before-edge" transform="translate(0,-5.6666669845581055)"><tspan x="0" y="0" dy="0" style="font-family: Arial, sans-serif; font-size: 10px; fill: black; font-weight: bold;">http://www.wikidata.org/entity/Q12037210</tspan></text></g><g transform="translate(312.24093461004543,469.2226250135428)"><text text-anchor="middle" dominant-baseline="text-before-edge" transform="translate(0,-5.6666669845581055)"><tspan x="0" y="0" dy="0" style="font-family: Arial, sans-serif; font-size: 10px; fill: black; font-weight: bold;">http://www.wikidata.org/entity/Q12137647</tspan></text></g><g transform="translate(585.4180191850153,299.149670002455)"><text text-anchor="middle" dominant-baseline="text-before-edge" transform="translate(0,-5.6666669845581055)"><tspan x="0" y="0" dy="0" style="font-family: Arial, sans-serif; font-size: 10px; fill: black; font-weight: bold;">http://www.wikidata.org/entity/Q12144832</tspan></text></g><g transform="translate(291.73398363426196,82.71114282573217)"><text text-anchor="middle" dominant-baseline="text-before-edge" transform="translate(0,-5.6666669845581055)"><tspan x="0" y="0" dy="0" style="font-family: Arial, sans-serif; font-size: 10px; fill: black; font-weight: bold;">http://www.wikidata.org/entity/Q12144832</tspan></text></g><g transform="translate(572.5986020856806,196.0709644763195)"><text text-anchor="middle" dominant-baseline="text-before-edge" transform="translate(0,-5.6666669845581055)"><tspan x="0" y="0" dy="0" style="font-family: Arial, sans-serif; font-size: 10px; fill: black; font-weight: bold;">http://www.wikidata.org/entity/Q12301694</tspan></text></g><g transform="translate(558.0207466431506,366.7598226142911)"><text text-anchor="middle" dominant-baseline="text-before-edge" transform="translate(0,-5.6666669845581055)"><tspan x="0" y="0" dy="0" style="font-family: Arial, sans-serif; font-size: 10px; fill: black; font-weight: bold;">http://www.wikidata.org/entity/Q12324250</tspan></text></g><g transform="translate(589.3240596164007,343.4851221379233)"><text text-anchor="middle" dominant-baseline="text-before-edge" transform="translate(0,-5.6666669845581055)"><tspan x="0" y="0" dy="0" style="font-family: Arial, sans-serif; font-size: 10px; fill: black; font-weight: bold;">http://www.wikidata.org/entity/Q12975560</tspan></text></g><g transform="translate(471.8952784787511,475.01778611467785)"><text text-anchor="middle" dominant-baseline="text-before-edge" transform="translate(0,-5.6666669845581055)"><tspan x="0" y="0" dy="0" style="font-family: Arial, sans-serif; font-size: 10px; fill: black; font-weight: bold;">http://www.wikidata.org/entity/Q12975563</tspan></text></g><g transform="translate(248.65658826028672,447.8530471543712)"><text text-anchor="middle" dominant-baseline="text-before-edge" transform="translate(0,-5.6666669845581055)"><tspan x="0" y="0" dy="0" style="font-family: Arial, sans-serif; font-size: 10px; fill: black; font-weight: bold;">http://www.wikidata.org/entity/Q12975699</tspan></text></g><g transform="translate(521.5973666226549,425.3235442056605)"><text text-anchor="middle" dominant-baseline="text-before-edge" transform="translate(0,-5.6666669845581055)"><tspan x="0" y="0" dy="0" style="font-family: Arial, sans-serif; font-size: 10px; fill: black; font-weight: bold;">http://www.wikidata.org/entity/Q12975719</tspan></text></g><g transform="translate(415.1114095953701,483.5952808851181)"><text text-anchor="middle" dominant-baseline="text-before-edge" transform="translate(0,-5.6666669845581055)"><tspan x="0" y="0" dy="0" style="font-family: Arial, sans-serif; font-size: 10px; fill: black; font-weight: bold;">http://www.wikidata.org/entity/Q12978566</tspan></text></g><g transform="translate(514.179983047715,109.74666080720544)"><text text-anchor="middle" dominant-baseline="text-before-edge" transform="translate(0,-5.6666669845581055)"><tspan x="0" y="0" dy="0" style="font-family: Arial, sans-serif; font-size: 10px; fill: black; font-weight: bold;">http://www.wikidata.org/entity/Q12978582</tspan></text></g><g transform="translate(230.76783662075334,110.68893539291889)"><text text-anchor="middle" dominant-baseline="text-before-edge" transform="translate(0,-5.6666669845581055)"><tspan x="0" y="0" dy="0" style="font-family: Arial, sans-serif; font-size: 10px; fill: black; font-weight: bold;">http://www.wikidata.org/entity/Q12979612</tspan></text></g><g transform="translate(195.8749050864519,406.45592310037193)"><text text-anchor="middle" dominant-baseline="text-before-edge" transform="translate(0,-5.6666669845581055)"><tspan x="0" y="0" dy="0" style="font-family: Arial, sans-serif; font-size: 10px; fill: black; font-weight: bold;">http://www.wikidata.org/entity/Q12979691</tspan></text></g><g transform="translate(346.1076088175431,488.57869546932227)"><text text-anchor="middle" dominant-baseline="text-before-edge" transform="translate(0,-5.6666669845581055)"><tspan x="0" y="0" dy="0" style="font-family: Arial, sans-serif; font-size: 10px; fill: black; font-weight: bold;">http://www.wikidata.org/entity/Q12982661</tspan></text></g><g transform="translate(182.66292254888978,157.43875037377097)"><text text-anchor="middle" dominant-baseline="text-before-edge" transform="translate(0,-5.6666669845581055)"><tspan x="0" y="0" dy="0" style="font-family: Arial, sans-serif; font-size: 10px; fill: black; font-weight: bold;">http://www.wikidata.org/entity/Q12987394</tspan></text></g><g transform="translate(378.8921620811052,41.38457079727144)"><text text-anchor="middle" dominant-baseline="text-before-edge" transform="translate(0,-5.6666669845581055)"><tspan x="0" y="0" dy="0" style="font-family: Arial, sans-serif; font-size: 10px; fill: black; font-weight: bold;">http://www.wikidata.org/entity/Q12987800</tspan></text></g><g transform="translate(599.2738558428073,262.6856483389238)"><text text-anchor="middle" dominant-baseline="text-before-edge" transform="translate(0,-5.6666669845581055)"><tspan x="0" y="0" dy="0" style="font-family: Arial, sans-serif; font-size: 10px; fill: black; font-weight: bold;">http://www.wikidata.org/entity/Q12987811</tspan></text></g><g transform="translate(160.0082129833382,349.7196784861418)"><text text-anchor="middle" dominant-baseline="text-before-edge" transform="translate(0,-5.6666669845581055)"><tspan x="0" y="0" dy="0" style="font-family: Arial, sans-serif; font-size: 10px; fill: black; font-weight: bold;">http://www.wikidata.org/entity/Q12987814</tspan></text></g><g transform="translate(438.83293013077275,47.32023995756538)"><text text-anchor="middle" dominant-baseline="text-before-edge" transform="translate(0,-5.6666669845581055)"><tspan x="0" y="0" dy="0" style="font-family: Arial, sans-serif; font-size: 10px; fill: black; font-weight: bold;">http://www.wikidata.org/entity/Q12988614</tspan></text></g><g transform="translate(153.00114710368544,217.65170689297523)"><text text-anchor="middle" dominant-baseline="text-before-edge" transform="translate(0,-5.6666669845581055)"><tspan x="0" y="0" dy="0" style="font-family: Arial, sans-serif; font-size: 10px; fill: black; font-weight: bold;">http://www.wikidata.org/entity/Q12989385</tspan></text></g><g transform="translate(317.3246106220048,53.270883048683686)"><text text-anchor="middle" dominant-baseline="text-before-edge" transform="translate(0,-5.6666669845581055)"><tspan x="0" y="0" dy="0" style="font-family: Arial, sans-serif; font-size: 10px; fill: black; font-weight: bold;">http://www.wikidata.org/entity/Q12989391</tspan></text></g><g transform="translate(145.13969056690925,284.28867938666195)"><text text-anchor="middle" dominant-baseline="text-before-edge" transform="translate(0,-5.6666669845581055)"><tspan x="0" y="0" dy="0" style="font-family: Arial, sans-serif; font-size: 10px; fill: black; font-weight: bold;">http://www.wikidata.org/entity/Q13147756</tspan></text></g><g transform="translate(570.0106452986845,157.1490996053433)"><text text-anchor="middle" dominant-baseline="text-before-edge" transform="translate(0,-5.6666669845581055)"><tspan x="0" y="0" dy="0" style="font-family: Arial, sans-serif; font-size: 10px; fill: black; font-weight: bold;">http://www.wikidata.org/entity/Q15455983</tspan></text></g><g transform="translate(558.191235014753,405.76725804756506)"><text text-anchor="middle" dominant-baseline="text-before-edge" transform="translate(0,-5.6666669845581055)"><tspan x="0" y="0" dy="0" style="font-family: Arial, sans-serif; font-size: 10px; fill: black; font-weight: bold;">http://www.wikidata.org/entity/Q16051030</tspan></text></g><g transform="translate(274.1036407456403,477.4174954863382)"><text text-anchor="middle" dominant-baseline="text-before-edge" transform="translate(0,-5.6666669845581055)"><tspan x="0" y="0" dy="0" style="font-family: Arial, sans-serif; font-size: 10px; fill: black; font-weight: bold;">http://www.wikidata.org/entity/Q16106381</tspan></text></g><g transform="translate(494.04345961941885,76.3381363024092)"><text text-anchor="middle" dominant-baseline="text-before-edge" transform="translate(0,-5.6666669845581055)"><tspan x="0" y="0" dy="0" style="font-family: Arial, sans-serif; font-size: 10px; fill: black; font-weight: bold;">http://www.wikidata.org/entity/Q16106496</tspan></text></g><g transform="translate(555.4640408301526,444.6796146614399)"><text text-anchor="middle" dominant-baseline="text-before-edge" transform="translate(0,-5.6666669845581055)"><tspan x="0" y="0" dy="0" style="font-family: Arial, sans-serif; font-size: 10px; fill: black; font-weight: bold;">http://www.wikidata.org/entity/Q16266631</tspan></text></g><g transform="translate(619.284693392513,318.5057404582345)"><text text-anchor="middle" dominant-baseline="text-before-edge" transform="translate(0,-5.6666669845581055)"><tspan x="0" y="0" dy="0" style="font-family: Arial, sans-serif; font-size: 10px; fill: black; font-weight: bold;">http://www.wikidata.org/entity/Q16313341</tspan></text></g><g transform="translate(252.9436580313168,78.59778349504083)"><text text-anchor="middle" dominant-baseline="text-before-edge" transform="translate(0,-5.6666669845581055)"><tspan x="0" y="0" dy="0" style="font-family: Arial, sans-serif; font-size: 10px; fill: black; font-weight: bold;">http://www.wikidata.org/entity/Q16323900</tspan></text></g><g transform="translate(447.44690185180497,505.4132786369727)"><text text-anchor="middle" dominant-baseline="text-before-edge" transform="translate(0,-5.6666669845581055)"><tspan x="0" y="0" dy="0" style="font-family: Arial, sans-serif; font-size: 10px; fill: black; font-weight: bold;">http://www.wikidata.org/entity/Q16556938</tspan></text></g><g transform="translate(514.3357459803678,463.64948778195617)"><text text-anchor="middle" dominant-baseline="text-before-edge" transform="translate(0,-5.6666669845581055)"><tspan x="0" y="0" dy="0" style="font-family: Arial, sans-serif; font-size: 10px; fill: black; font-weight: bold;">http://www.wikidata.org/entity/Q16773664</tspan></text></g><g transform="translate(383.79663333022444,506.8545558701592)"><text text-anchor="middle" dominant-baseline="text-before-edge" transform="translate(0,-5.6666669845581055)"><tspan x="0" y="0" dy="0" style="font-family: Arial, sans-serif; font-size: 10px; fill: black; font-weight: bold;">http://www.wikidata.org/entity/Q17427553</tspan></text></g><g transform="translate(350.59334369562373,527.327724721285)"><text text-anchor="middle" dominant-baseline="text-before-edge" transform="translate(0,-5.6666669845581055)"><tspan x="0" y="0" dy="0" style="font-family: Arial, sans-serif; font-size: 10px; fill: black; font-weight: bold;">http://www.wikidata.org/entity/Q18704493</tspan></text></g><g transform="translate(605.9351753889044,216.32638265923202)"><text text-anchor="middle" dominant-baseline="text-before-edge" transform="translate(0,-5.6666669845581055)"><tspan x="0" y="0" dy="0" style="font-family: Arial, sans-serif; font-size: 10px; fill: black; font-weight: bold;">http://www.wikidata.org/entity/Q20604227</tspan></text></g><g transform="translate(209.97398545782616,442.82658460174446)"><text text-anchor="middle" dominant-baseline="text-before-edge" transform="translate(0,-5.6666669845581055)"><tspan x="0" y="0" dy="0" style="font-family: Arial, sans-serif; font-size: 10px; fill: black; font-weight: bold;">http://www.wikidata.org/entity/Q20624521</tspan></text></g><g transform="translate(192.834280939759,119.78038405431434)"><text text-anchor="middle" dominant-baseline="text-before-edge" transform="translate(0,-5.6666669845581055)"><tspan x="0" y="0" dy="0" style="font-family: Arial, sans-serif; font-size: 10px; fill: black; font-weight: bold;">http://www.wikidata.org/entity/Q20790534</tspan></text></g><g transform="translate(553.186396597612,110.07649006651476)"><text text-anchor="middle" dominant-baseline="text-before-edge" transform="translate(0,-5.6666669845581055)"><tspan x="0" y="0" dy="0" style="font-family: Arial, sans-serif; font-size: 10px; fill: black; font-weight: bold;">http://www.wikidata.org/entity/Q22115070</tspan></text></g><g transform="translate(501.4557089186886,500.4695058516918)"><text text-anchor="middle" dominant-baseline="text-before-edge" transform="translate(0,-5.6666669845581055)"><tspan x="0" y="0" dy="0" style="font-family: Arial, sans-serif; font-size: 10px; fill: black; font-weight: bold;">http://www.wikidata.org/entity/Q22948651</tspan></text></g><g transform="translate(312.4114229816479,508.23006044681676)"><text text-anchor="middle" dominant-baseline="text-before-edge" transform="translate(0,-5.6666669845581055)"><tspan x="0" y="0" dy="0" style="font-family: Arial, sans-serif; font-size: 10px; fill: black; font-weight: bold;">http://www.wikidata.org/entity/Q23907909</tspan></text></g><g transform="translate(633.4838492050989,243.943038074666)"><text text-anchor="middle" dominant-baseline="text-before-edge" transform="translate(0,-5.6666669845581055)"><tspan x="0" y="0" dy="0" style="font-family: Arial, sans-serif; font-size: 10px; fill: black; font-weight: bold;">http://www.wikidata.org/entity/Q27557394</tspan></text></g><g transform="translate(161.1368524870811,388.71115522448144)"><text text-anchor="middle" dominant-baseline="text-before-edge" transform="translate(0,-5.6666669845581055)"><tspan x="0" y="0" dy="0" style="font-family: Arial, sans-serif; font-size: 10px; fill: black; font-weight: bold;">http://www.wikidata.org/entity/Q27643810</tspan></text></g><g transform="translate(593.828885007784,382.23193663355687)"><text text-anchor="middle" dominant-baseline="text-before-edge" transform="translate(0,-5.6666669845581055)"><tspan x="0" y="0" dy="0" style="font-family: Arial, sans-serif; font-size: 10px; fill: black; font-weight: bold;">http://www.wikidata.org/entity/Q28009309</tspan></text></g><g transform="translate(593.9993733793864,421.2393720668308)"><text text-anchor="middle" dominant-baseline="text-before-edge" transform="translate(0,-5.6666669845581055)"><tspan x="0" y="0" dy="0" style="font-family: Arial, sans-serif; font-size: 10px; fill: black; font-weight: bold;">http://www.wikidata.org/entity/Q28493942</tspan></text></g><g transform="translate(149.9975610862381,178.7597082762715)"><text text-anchor="middle" dominant-baseline="text-before-edge" transform="translate(0,-5.6666669845581055)"><tspan x="0" y="0" dy="0" style="font-family: Arial, sans-serif; font-size: 10px; fill: black; font-weight: bold;">http://www.wikidata.org/entity/Q28791944</tspan></text></g><g transform="translate(589.7994925911063,123.53346919026558)"><text text-anchor="middle" dominant-baseline="text-before-edge" transform="translate(0,-5.6666669845581055)"><tspan x="0" y="0" dy="0" style="font-family: Arial, sans-serif; font-size: 10px; fill: black; font-weight: bold;">http://www.wikidata.org/entity/Q28872856</tspan></text></g><g transform="translate(274.2741291172427,516.4249309196123)"><text text-anchor="middle" dominant-baseline="text-before-edge" transform="translate(0,-5.6666669845581055)"><tspan x="0" y="0" dy="0" style="font-family: Arial, sans-serif; font-size: 10px; fill: black; font-weight: bold;">http://www.wikidata.org/entity/Q29595719</tspan></text></g><g transform="translate(343.7089102663669,24.539753282480604)"><text text-anchor="middle" dominant-baseline="text-before-edge" transform="translate(0,-5.6666669845581055)"><tspan x="0" y="0" dy="0" style="font-family: Arial, sans-serif; font-size: 10px; fill: black; font-weight: bold;">http://www.wikidata.org/entity/Q33001403</tspan></text></g><g transform="translate(635.2420699756582,282.9112012991222)"><text text-anchor="middle" dominant-baseline="text-before-edge" transform="translate(0,-5.6666669845581055)"><tspan x="0" y="0" dy="0" style="font-family: Arial, sans-serif; font-size: 10px; fill: black; font-weight: bold;">http://www.wikidata.org/entity/Q33082444</tspan></text></g><g transform="translate(133.16800964487052,321.41397994122696)"><text text-anchor="middle" dominant-baseline="text-before-edge" transform="translate(0,-5.6666669845581055)"><tspan x="0" y="0" dy="0" style="font-family: Arial, sans-serif; font-size: 10px; fill: black; font-weight: bold;">http://www.wikidata.org/entity/Q40331421</tspan></text></g></g></g></svg>